<?xml version="1.0" encoding="UTF-8"?>
<svg id="Layer_1" data-name="Layer 1" xmlns="http://www.w3.org/2000/svg" width="120mm" height="120mm" viewBox="0 0 340.157 340.157">
  <path d="M230.614,49.123c-.851-1.437-2.241-1.666-3.803-2.202-6.135-2.105-12.587-2.139-18.434,1.419-8.185,4.981-17.474,6.474-26.068,1.188-6.38-3.924-14.512-5.62-21.646-2.437-4.776,2.13-8.992,5.021-14.292,5.614-12.248,1.37-18.806-7.53-27.409-7.244-4.528.15-9.016.834-13.247,2.604-2.181.912-2.21,3.726-1.214,5.597l10.834,20.341c.202.38.396.75.592,1.123l5.399,1.843,1.227.288c3.817.895,7.717,1.823,11.607,2.881l-3.281-8.978c-.854-2.334.348-4.918,2.682-5.771,2.332-.85,4.918.347,5.771,2.682l5.175,14.159c.022.06.028.123.047.184.825-.016,1.717-.022,2.682.077l13.714,1.398c1.692.171,3.355.313,4.991.371l.038-5.531c.015-1.752.009-2.988-.2-4.21-.419-2.45,1.228-4.775,3.677-5.194,2.448-.421,4.775,1.227,5.194,3.677.333,1.949.347,3.704.329,5.796l-.037,5.412c4.807-.187,9.658-.824,14.723-1.492,1.031-.136,2.08-.273,3.132-.407.024-1.597.345-3.066.727-4.401.298-1.04.553-2.095.822-3.211.894-3.704,1.817-7.533,4.388-11,1.48-1.995,4.297-2.416,6.296-.935,1.996,1.48,2.414,4.299.935,6.295-1.481,1.997-2.124,4.663-2.869,7.75-.279,1.159-.569,2.357-.919,3.58-.012.041-.018.073-.03.112l11.604-3.003,3.515-1.601c.218-.106.442-.195.674-.266l2.143-.653c.178-.485.377-.972.615-1.469l9.734-20.28c.745-1.552.84-2.993.182-4.104Z"/>
  <path d="M268.789,248.669l-4.047-14.738c-2.519-9.177-4.445-17.985-5.402-27.449l-2.49-24.617c-1.791-17.708-5.529-34.602-10.987-51.552-4.831-15.004-11.415-28.445-20.739-41.12-1.222-1.661-1.991-3.655-2.926-5.453l-1.29.393-.172.084c-.045.022-.091.043-.136.064l-3.502,1.578c-.233.104-.475.189-.722.253l-11.573,2.995.045.088c5.474,8.021,8.823,17.46,9.959,28.063.265,2.471-1.524,4.689-3.995,4.954-.163.017-.325.026-.485.026-2.27,0-4.222-1.713-4.469-4.021-.985-9.204-3.874-17.33-8.584-24.155-.11-.159-.21-.326-.299-.498l-1.307-2.54c-1.619.198-3.239.405-4.829.615-5.206.685-10.549,1.382-15.96,1.571l-.084,12.28c-.017,2.475-2.028,4.469-4.499,4.469h-.031c-2.485-.017-4.486-2.045-4.47-4.531l.083-12.162c-1.997-.061-3.953-.234-5.834-.424l-13.729-1.399c-.575-.06-1.269-.045-2.002-.028-.817.017-1.722.036-2.683-.039l-.772,1.615c-.049.103-.103.204-.159.303-5.534,9.619-9.136,20.741-10.705,33.059-.289,2.272-2.227,3.932-4.458,3.932-.19,0-.382-.012-.574-.037-2.466-.314-4.21-2.567-3.896-5.033,1.706-13.389,5.637-25.543,11.678-36.135-4.06-1.131-8.201-2.11-12.249-3.06l-1.445-.339c-.144-.033-.285-.074-.424-.122l-2.829-.966-3.485,3.161c-9.734,11.362-16.049,24.497-20.388,38.784-4.553,14.991-7.176,29.891-8.268,45.402l-1.132,16.085-1.608,30.179c-1.516,12.629-8.225,28.548-7.477,33.503,1.333,8.829,8.2,13.47,16.749,13.477l119.528.092,21.405-.06,23.623-.284c8.522-.103,15.396-7.816,14.043-16.262Z"/>
</svg>