<?xml version="1.0" encoding="UTF-8"?>
<svg id="Layer_1" data-name="Layer 1" xmlns="http://www.w3.org/2000/svg" width="120mm" height="120mm" viewBox="0 0 340.157 340.157">
  <path d="M307.806,192.262c-2.336.247-4.733-.734-6.902-1.862-2.574-1.339-1.463-3.471-1.512-5.897l2.446-3.747.323-.525c.064-.104-.117-.302-.2-.387-.574-.597-.849.527-1.791,1.956l-1.865,2.83c-.625.949-2.237,1.1-3.198,1.621-2.271-2.952,2.176-3.913,3.589-8.587l-1.45-3.235c-.965-3.133.461-6.403,3.066-8.353,1.148-.86,1.332-1.501,1.343-2.918.079-10.256-3.435-14.452-11.194-20.887-11.075-9.185-18.39-17.923-22.783-31.703-2.56-8.03-7.537-19.28-14.788-23.777-7.989-4.954-17.669-9.239-27.569-8.681,5.924,6.614,10.696,13.576,15.201,21.079,12.603,20.988,18.457,42.049,22.138,66.407,2.768,18.313,4.161,36.46,5.027,54.857l1.656,23.582c1.094,9.644,3.798,18.526,7.711,27.35,3.521,7.941,7.19,17.888,5.431,26.405-1.985,9.612-11.027,12.423-20.531,11.56l-13.121-1.191c-11.289-1.025-22.307-2.178-33.731-1.533-12.217.69-23.941.854-36.176.96l-31.734.277c-22.296.195-44.184.173-66.416-1.025-7.541-.406-14.625-.871-22.092-.235l-13.88,1.182-16.542,1.673c-9.67.978-19.045-1.598-21.814-11.356-2.672-9.411,1.27-20.219,5.104-29.098,7.319-16.95,10.039-30.143,11.521-48.74l2.343-29.386,1.771-18.177c1.341-13.764,4.017-27.112,7.923-40.301,3.835-12.948,9.009-25.101,15.943-36.725l5.949-9.974,5.747-11.092c.823-1.589,1.599-3.67,1.527-5.517-3.508-7.371-7.742-15.049-8.547-23.179-.269-2.715.396-5.412,1.954-7.82,1.238-1.913,3.445-3.048,5.726-3.608,8.495-2.086,17.051-3.401,25.926-3.858,9.576-.493,18.675.509,27.895,2.741,17.001,4.114,29.693,4.562,46.842,1.66l11.018-1.865c13.826-2.34,26.801-2.661,40.686.149,6.669,1.349,15.113,4.089,19.333,9.247,2.074,2.535,2.732,5.857,1.639,8.981-1.541,4.404-4.018,8.298-7.444,11.447l-3.497,2.542c-.543.269-.014.801.37.304,6.075-1.644,11.585-4.196,17.17-6.985l5.536-2.765,9.288-4.909c7.546-3.988,15.19-7.618,23.724-8.826,10.694-1.514,21.757-.483,29.545,6.905,7.665,7.272,11.311,19.317,10.306,29.739-1.063,11.021-9.302,16.017-.955,22.908l4.159,3.434c2.002,1.653,3.439,3.193,3.889,5.841.325,1.913.237,3.539-1.413,5.164l5.214,2.664c1.2.613,1.742,1.576,1.91,2.75.367,2.569-2.757,3.409-2.74,5.385l-5.066,3.216c-3.005,1.373-5.965.133-8.295-1.547-1.798-1.296-3.168-2.223-3.568-4.584l-1.189-3.725c-4.402-2.7-5.044-6.977-4.68-11.837-6.559-8.694-4.627-18.27-.897-28.17,2.697-7.16,1.317-14.678-3.719-20.419-2.757-3.143-6.051-5.639-10.203-6.623-9.392-2.226-20.159,2.321-28.814,6.688l-13.747,6.936-5.966,2.605c5.148,1.727,9.963,3.276,14.084,6.445,3.671,2.823,7.203,5.579,10.09,9.18,2.778,3.464,4.083,7.325,5.766,11.239l3.507,8.157c1.436,4.435,3.009,8.801,5.463,12.77,4.257,6.885,9.825,12.489,15.84,17.891,8.202,7.367,14.854,18.16,14.648,29.198-.031,1.639,4.517,3.958,2.307,9.293-.67,1.618-1.689,3.079-2.702,4.448-1.787,2.415,1.077,6.621.219,10.711-.273,1.301-3.382,3.293-4.34,1.872-.371-.55-.867,1.177-2.745,1.376Z" fill="#416c34"/>
  <g id="Generative_Object" data-name="Generative Object">
    <g>
      <path d="M307.724,192.24c-7.088.294-11.383-4.862-6.243-10.89,1.473-2.649-.793-1.004-1.238.372-.854,1.665-3.759,5.794-5.564,3.576-.691-2.005,2.07-3.276,3.515-6.385.808-1.274-.11-2.608-.658-3.919-2.205-4.335,1.903-7.589,3.981-10.636,2.272-18.975-19.443-24.887-26.729-38.785-7.616-10.914-8.485-25.963-18.291-35.851-8.141-6.938-19.382-11.811-30.428-11.58,39.352,46.199,39.618,109.461,43.47,167.307,1.239,14.334,8.995,26.545,12.537,40.223,6.6,29.668-21.819,23.801-41.558,21.738-55.029-2.013-110.385,2.993-165.41-.867-18.022-1.487-36.216,3.206-54.043,2.918-22.035-2.511-15.967-27.473-9.139-41.456,6.798-16.002,9.488-28.77,10.968-46.203.849-9.425,1.713-22.422,2.547-31.7,1.376-41.473,15.083-80.281,37.13-115.22.927-2.011,2.297-4.642,1.153-6.854-4.675-9.772-15.522-28.938.031-33.635,38.049-11.58,62.824,7.671,99.013.847,17.972-3.695,69.253-10.482,74.487,13.54-.842,6.806-5.596,12.855-11.118,16.552,18.031-2.983,35.863-20.251,55.592-22.95,25.45-4.332,41.33,11.466,40.059,36.489-.065,6.003-5.553,13.12-4.445,18.133,1.874,6.706,15.298,9.926,10.801,18.48-1.449,2.413,7.087,2.637,6.384,6.723-3.329,9.796-16.364,12.235-19.847,1.284-1.811-5.607-6.597-6.069-5.698-13.768-6.304-10.321-4.323-20.969.034-32.174,2.975-11.965-7.479-25.146-19.946-24.673-15.227.288-29.528,11.35-42.956,16.647,36.102,11.451,25.829,39.959,49.634,61.456,9.722,8.387,19.306,19.36,19.354,32.96.013,2.574,3.096,3.545,2.828,7.63-.083,3.172-2.803,5.295-3.725,8.077-.283,3.029,3.36,12.326-3.298,11.457-1.056-.439-2.03,1.162-3.184,1.14ZM183.402,66.344c1.205,1.138-.952,3.742.251,4.599,2.681.988,3.646-8.472,4.647-9.574,3.568-5.556-.066,7.391-.33,8.747,3.359,2.603,4.236-5.416,5.956-8.349.534-2.21,2.534-3.432,1.81-.173-.437,2.145-1.962,6.873-2.265,8.235-.049.625.815.095,1.802.112,2.222-.452,5.248-.134,6.989-1.077,1.627-1.076,10.373-19.116,10.652-14.461-1.559,4.838-4.137,9.144-6.698,13.575,4.403,3.155,14.627-11.668,17.892-15.041.507-.582,2.561-3.345,2.595-1.556,0,6.523-18.55,20.632-8.633,15.266,22.61-17.711,12.631-26.665-10.94-29.152-20.074-2.064-40.238,2.489-59.744,6.182,22.674-1.341,48.892-9.742,72.172-2.41,1.545.254,6.654,3.702,4.065,3.87-11.922.397-23.478,1.529-35.165,3.279-13.584,2.368-27.087,1.025-40.738.111-12.887-1.108-25.687,1.745-38.581,1.122-13.626-.223-30.082-1.757-40.807-8.675,19.453-6.539,44.057.078,63.219,1.407-22.212-5.078-43.36-8.001-65.752-2.893-9.614,1.935,1.057,21.15,5.083,27.797,5.037,4.27-5.252-14.878-4.361-17.27-.504-1.875-.05-5.285,1.595-1.659,1.622,2.789,7.412,22.901,10.67,19.964-1.491-4.684-3.634-9.677-3.157-14.757.13-1.48.174-1.092.776.448,2.708,6.455,3.907,10.916,6.432,15.461.51-.014,5.996,1.126,4.477-.555-2.002-2.997-6.768-10.601-3.191-8.571,3.346,3.173,5.152,12.02,11.059,9.704-.574-2.434-4.379-6.364-3.31-8.752,1.766.653,5.197,8.181,6.678,9.438.986.173,2.964.437,3.654.352-5.907-12.704-3.856-11.183,2.752-.802,4.617,2.045,10.513.971,15.503,1.678.428-.176-.84-1.722-.737-2.544,1.27-1.339,3.156,2.702,4.885,2.594.769.147,1.573.062,1.439-.741-.521-1.7-4.859-11.255-3.152-12.088,2.956,2.875,4.995,11.681,6.41,12.754,4.185,1.771.106-5.505.082-7.171-.62-1.537-.34-4.04,1.194-1.412,4.475,9.445,1.703,9.021,12.723,8.854,2.833.752-.323-8.908,2.082-9.996,1.86,1.916.64,7.031,1.635,9.867,16.247-.286,7.987,1.53,12.521-9.668,1.6.957-.405,8.627,1.418,9.333.835.121,2.175.388,2.696-.393.279-1.113,1.002-5.829,1.235-7.055,2.101-5.06.768,6.873,1.383,7.456,1.083-.088,12.249-.372,14.182-.645,1.023-1.079,1.338-4.328,2.944-4.764ZM289.285,47.928c1.406-.31,3.186-1.387,3.589-2.827-3.243-.617-7.747.082-8.72,3.887.241.019,4.131-.863,5.131-1.06ZM283.2,45.829c-3.5.278-7.281,1.453-8.199,5.49,3.656.368,6.56-1.976,8.241-5.42l-.042-.07ZM296.012,48.707c.674-.39,3.484-2.007,3.655-2.107-2.637-1.079-6.03-.444-7.155,2.456.956.674,2.56.194,3.501-.349ZM274.057,48.116c-3.209.317-6.445,2.745-7.213,5.894,4.012-.342,6.086-2.095,7.213-5.894ZM305.09,50.032c-1.208-3.43-5.848-1.455-8.139-.119,1.981,2.171,5.519-.226,8.084.171l.055-.052ZM262.762,56.356c1.639-.864,2.084-2.962,2.825-4.542-3.069-.225-6.926,3.169-7.409,6.57.212-.027,3.739-1.656,4.584-2.028ZM311.491,55.748c-1.215-3.76-5.325-5-8.908-3.217,1.678,2.641,6.261,2.443,8.927,3.299l-.02-.082ZM250.669,62.17c3.135-.426,5.492-3.21,6-6.25-2.856,1.243-5.721,2.727-6.051,6.203l.05.047ZM315.82,64.437c-.341-4.239-3.265-7.117-7.843-7.127,1.043,3.596,4.776,5.564,7.844,7.214l-.002-.087ZM249.188,59.919c-3.026.742-4.987,2.92-6.062,5.738,3.729-.77,5.255-1.939,6.062-5.738ZM239.938,67.166c.8-.798,1.137-2.396,1.265-3.474-2.336.387-4.89,1.727-6.42,3.544,1.552.384,3.757,1.103,5.155-.07ZM318.001,74.779c.336-4.721-.652-8.966-5.762-10.088.36,4.126,1.814,8.022,5.697,10.126l.065-.039ZM238.462,71.724c-2.562-1.801-5.02-.363-7.243,1.202,2.28,1.999,5.086.158,7.241-1.142l.002-.06ZM223.763,73.226c1.81-1.944-7.058-.509-10.907-.095-6.028,1.108-7.961-.285-9.96,2.884,6.429.26,14.056-1.469,20.867-2.789ZM74.139,75.524c1.104.292,2.797.195,3.242-1.083-1.833-1.351-4.392-1.72-6.642-1.826l-1.437,1.894c1.291.809,3.364.6,4.837,1.015ZM243.727,77.035c.947-.303,4.826-1.418,4.976-1.528-3.776-2.628-7.533-3.496-11.116-.654-.506,1.124,5.343,2.42,6.14,2.181ZM114.814,76.835c-5.647-.685-13.776-.922-19.515-1.415-1.823.343-21.16-3.468-13.566.946,3.713-.132,35.287,5.074,33.081.468ZM316.446,83.892c1.532-3.397,1.339-8.425-2.728-9.827-1.919,3.584.565,7.194,2.684,9.901l.043-.074ZM198.841,76.509c.036-.031,2.44-2.058,2.457-2.087-2.461.119-9.764.644-10.433.673-5.477,4.304,6.309,1.066,7.975,1.414ZM179.403,78.14c2.679-.408,7.382.469,8.199-2.831-7.231.248-18.184,1.112-24.131,1.252-2.056,4.578,13.303,1.229,15.932,1.579ZM144.474,79.126c.714-.523.799-1.797-.169-2.022-6.012-.065-18.301-.308-23.366-.357-.372.364-1.031,1.586-.889,1.991,6.47.076,18.944,1.087,24.424.387ZM161.03,79.024c1.311.127,1.957-1.868.88-2.321-4.893.184-10.298.141-15.102.5-.536.442-.503,1.972.048,2.232,1.848-.05,11.435-.3,14.174-.412ZM116.555,78.269c1,1.414,2.562-.286,1.28-1.207-.479.366-1.018.717-1.28,1.207ZM253.161,81.264c.95-.224,4.72-1.008,4.896-1.105-5.529-5.696-18.257-.671-4.896,1.105ZM32.973,174.48c-4.552,23.311-2.326,51.821-8.061,76.239-.741,2.532,1.319-1.156,1.519-.965-15.244,35.051-33.14,62.22,22.92,51.12,49.631-.729,102.849,2.605,152.902.519,14.578-.616,28.986-1.323,43.343.285,11.31,1.907,16.835,1.054,21.367-10.574.29-.48.667-1.001.709-.164-.589,5.534-3.645,9.143-8.606,11.362-.644.338-.426.552.165.661,11.411,1.523,20.138-.136,17.528-14.72-1.534-9.34-5.835-16.513-8.739-24.092-7.832-26.23-5.61-54.234-8.619-81.161-2.635-37.182-15.512-74.177-39.464-103.133-.786-1.175-1.912-.787-3.146-.686-2.215.317-1.147.961-.059,2.285,8.743,10.241,19.592,25.368,22.735,36.563-5.824-8.132-11.648-18.768-17.976-26.416-2.731-2.562-8.319-11.338-11.047-11.729-1.247.12-2.511.582-1.176,1.745.992.814,9.425,10.081,7.169,10.04-4.109-2.85-7.636-7.258-11.289-10.514-.732-.812-3.435-.684-2.154.917,1.173,1.516,15.755,19.352,11.909,18.662-5.217-6.177-9.908-12.642-15.492-18.466-.968-1.53-2.919-.928-4.429-.711-3.272-.126,6.005,11.811,5.164,14.184-4.076-2.342-6.752-10.476-9.445-13.574-1.04-.386-3.993-.419-4.596.625.566,1.243,3.575,6.308,4.826,8.627,1.839,6.074-7.482-9.365-8.948-8.975-21.583,2.147-14.911-4.065-14.979,12.987-2.358-.708-2.057-12.853-5.1-12.138-1.063-.059-2.382.204-2.286,1.529.116,3.881.896,9.826.156,11.36-2.315-.137-1.089-11.173-2.848-12.534-9.399.802-10.818-3.524-10.785,7.05-.056.407-.184,1.331-.726,1.263-3.419-10.927,4.562-8.128-15.712-8.169-.478.013-5.012,17.699-5.522,13.255.155-4.371,1.54-8.377,2.703-12.509.058-1.339-2.49-1.04-2.767-.214-.757,1.649-3.726,8.182-4.48,9.834-4.361,6.828.893-8.606,1.877-9.948.692-1.324-5.966-.659-6.252-.847-.639-.125-1.532,1.895-1.878,1.078.526-2.467-12.107-1.302-12.625-1.898-1.242.017-9.752,11.855-8.119,6.502,1.289-2.858,7.676-8.498.067-6.481-.6.408-12.231,19.137-9.077,10.361,1.561-3.69,3.831-6.999,5.75-10.493.736-.75-4.846-1.333-5.17-1.129-1.534.719-15.756,15.929-15.987,13.733,2.416-5.018,7.78-9.645,10.999-13.861,1.131-1.142-1.985-1.172-2.504-.751-6.011,5.711-10.635,12.771-16.099,18.942-4.333,2.631,7.646-14.318,8.276-14.923,1.829-3.039,6.315-6.112-.39-5.548-20.639,27.333-32.644,61.419-35.532,95.595ZM314.356,90.953c1.993-2.987.533-7.513-2.383-9.389-1.628,3.382-1.21,7.424,2.288,9.41l.095-.02ZM264.77,85.86c-2.675-3.381-5.584-5.027-9.633-2.598,1.963,3.186,6.444,2.861,9.665,2.651l-.033-.053ZM269.014,92.082c-1.353-3.326-5.244-4.998-8.556-3.639,1.379,3.179,5.35,3.908,8.515,3.704l.041-.064ZM314.562,99.72c.536-.972-.453-2.081-.736-2.92-.308-2.393-.762-5.318-3.348-6.37-1.724,3.732-.333,8.33,3.997,9.36l.088-.07ZM273.071,100.42c-.233-2.424-1.903-4.864-4.22-5.7-.933-.456-4.002-1.281-3.493.224,2.778,4.188,3.011,4.424,7.705,5.563l.008-.087ZM314.794,105.317c1.048-.343.393-1.4-.071-1.962-.105-.561-.638-.857-1.128-.923-.578-1.407-2.323-2.332-3.688-2.789-.197,2.336,2.142,8.585,4.888,5.674ZM276.011,109.403c-.451-1.91-.982-4.095-2.201-5.685-.912-.393-5.134-2.899-4.443-.368,1.607,2.621,2.872,6.485,6.595,6.117l.05-.065ZM317.293,110.627c2.063-.528,4.504-.871,6.077-2.555-3.153.101-6.362,1.742-9.207,3.009-1.553,2.206,2.575-.493,3.13-.453ZM279.858,117.046c-1.125-2.707-2.946-5.556-6.156-5.741.168,3.428,2.398,6.404,6.12,5.818l.036-.078ZM316.193,117.306c3.769.75,7.798-1.286,9.48-4.669.185-.873-1.806.413-2.156.587-3.876,3.34-5.916,1.08-9.801,2.119.548.637,1.536,1.873,2.477,1.964ZM331.879,122.674c-.501-2.203-2.868-4.303-5.11-4.353,1.424,1.604,3.246,3.191,5.072,4.379l.038-.026ZM284.05,123.827c-.842-2.366-5.285-5.645-7.632-4.268,1.206,3.444,4.529,3.953,7.652,4.327l-.019-.059ZM324.71,123.524c-.621.847,1.201,2.169.423.654-.125-.115.264-.385.076-.56-.816-.3.037-.501-.085-1.097-.824-.853-1.292-1.921-1.626-3.287-2.327-.419-.632,2.223-.019,3.133.272.514.455,1.267,1.187,1.111l.044.047ZM323.102,128.679c.057-2.988-1.466-5.954-2.289-8.846-2.913.976,2.218,7.748,2.277,8.914l.012-.068ZM328.06,123.425c-.841-.705-1.508-2.873-2.971-2.088-.262.49.319.475.636.679,1.178,1.872,1.59,6.636,2.335,1.409ZM290.617,131.145c-.657-1.415-8.765-8.199-8.991-4.423,2.197,3.205,4.89,6.134,8.983,4.501l.008-.078ZM327.925,126.774c.024.609.643.816.873.401.214-.626-.667-.668-.873-.401ZM298.045,138.722c-2.256-3.06-5.734-6.463-9.928-4.621,2.495,2.782,5.612,6.104,9.896,4.713l.032-.093ZM305.849,147.025c-1.908-3.37-6.001-7.05-10.242-5.562,2.379,3.496,5.943,5.9,10.264,5.652l-.023-.091ZM308.307,151.604c-.968-2.511-3.728-2.235-5.859-2.23.27,3.069,4.267,3.987,6.526,5.232.546-.811-.304-2.261-.667-3.003ZM311.196,162.762c.256-3.714-2.544-6.654-6.333-7.058.413,1.401,1.859,5.249,2.037,5.832,1.172.639,2.899,1.118,4.222,1.299l.074-.073ZM312.092,166.129c-.188-.786.01-1.604-1.175-1.516-1.724.068-4.468-1.114-5.901-.683.199,2.028,5.049.637,6.541,2.396.211.06.48-.035.535-.198ZM312.049,171.83c-.108.049.074-2.688-.447-2.767-2.368.912-5.402-2.42-7.896.442,2.725.364,5.995.063,8.343,2.325ZM301.441,170.04c-.585.305-1.684,2.053-.806,2.862.606.558,1.246-.97.806-2.862ZM307.761,174.883c1.561-.137,3.685,2.026,4.802.353.039-.893-2.445-.426-3.388-1.021-2.189-1.12-4.556-.774-6.409.731-.812.092-3.013,2.237-.956,1.423,1.897-.854,3.746-2.153,5.952-1.487ZM310.217,179.853c-1.967-.265-4.384-1.18-6.257-.644,1.857.305,4.35,1.323,6.264.682l-.007-.038ZM302.822,189.051c5.164-10.013-.506-9.163-.033.046l.033-.046ZM305.772,190.233c1.945-1.994,3.028-5.862,1.948-8.402-.496-.51-.338-.22-.472.335-.198,2.749-1.573,5.315-1.53,8.047l.054.02ZM312.771,188.216c-.136.184-1.006-6.066-1.519-5.18-.492.901,1.313,8.302,1.519,5.18Z" fill="#050606"/>
      <path d="M318.008,74.846c-1.841-1.232-3.465-2.774-4.681-4.667-.412-.642-.267-1.417-.402-2.071l-.697-3.392,4.495,2.067c.802,2.52,1.518,5.06,1.286,8.063Z" fill="#cbcccb"/>
      <path d="M305.797,147.149l-4.799-.65c-2.25-1.075-3.594-3.349-5.465-5.07,3.163-.993,5.922.439,7.858,2.679.924.809,1.767,1.269,2.406,3.041Z" fill="#cdccca"/>
      <path d="M243.706,77.032c-.957.295-4.439-.766-6.354-1.886,3.723-3.2,7.199-2.362,11.297.363l-4.944,1.523Z" fill="#cacac9"/>
      <path d="M253.167,81.255c-1.651.367-2.911-.751-4.332-1.095-.526-.127-2.153-.52-1.585-1.455,2.583-2.299,7.656-1.246,10.818,1.459l-4.901,1.09Z" fill="#cbc9c8"/>
      <path d="M298.002,138.804c-4.543,1.373-6.75-1.696-9.928-4.741,4.357-1.544,7.056.994,9.928,4.741Z" fill="#cccccb"/>
      <path d="M290.64,131.216c-5.897,1.549-6.185-1.666-8.743-4.096-.489-.465-.215-.714-.066-1.036.218-.472.569-.556,1.172-.487,2.994.98,5.354,2.828,7.638,5.619Z" fill="#c8c6c5"/>
      <path d="M316.388,83.924l-2.765-4.127c-1.077-1.608-.366-3.93.039-5.791,2.109.945,3.439,2.819,3.814,5.088-.361,1.617-.25,2.878-1.088,4.83Z" fill="#dad9d9"/>
      <path d="M276.03,109.481c-1.266-.173-3.108-.248-3.786-1.363l-2.747-4.512c-.25-.41-.241-.884-.132-1.122.235-.514.753-.272,1.325-.055l2.978,1.13c1.362,1.673,1.761,3.747,2.361,5.922Z" fill="#d7d8d6"/>
      <path d="M314.317,90.941c-1.093-.961-2.426-1.989-3.1-3.243-.556-1.942.183-4.195.701-6.167,2.919,2.166,4.499,6.21,2.398,9.41Z" fill="#cbcaca"/>
      <path d="M314.524,99.752c-1.305-.559-3.452-1.526-4.257-3.102-.976-1.909-.237-4.25.137-6.258,2.59,1.359,3.116,3.693,3.37,6.223.089.89,1.428,1.658.751,3.136Z" fill="#cbcbca"/>
      <path d="M273.069,100.536l-4.664-1.448-2.891-3.885c-1.293-1.737,2.856-1.473,5.775,1.04.674,1.453,1.715,2.24,1.78,4.294Z" fill="#c9c9c8"/>
      <path d="M311.208,162.849c-1.559-.262-2.812-.693-4.269-1.246l-2.104-5.907c4.002.704,6.42,2.933,6.373,7.153Z" fill="#d0cecd"/>
      <path d="M264.798,85.926l-3.528.092c-2.378.062-4.308-.605-5.886-2.432-.322-.07-.276-.262-.192-.396-.06.096,3.634-1.579,4.907-1.134,1.972.689,3.229,2.441,4.699,3.871Z" fill="#cbcac9"/>
      <path d="M315.755,64.524l-5.106-3.102c-1.231-.937-1.729-2.729-2.756-4.178,4.791.492,7.238,2.212,7.862,7.28Z" fill="#cfcdcb"/>
      <path d="M316.193,117.266c-1.134-.146-1.647-1.458-2.521-1.945,1.038-.349,2.275-.559,3.323-.232,3.771,1.177,5.869-2.235,8.651-2.799-.161,1.152-.922,1.993-1.852,2.475l-1.533,1.551c-1.711,1.043-3.885,1.23-6.069.95Z" fill="#d7d6d4"/>
      <path d="M283.223,45.81c-2.085,3.945-4.203,5.494-8.273,5.606,1.427-4.261,4.153-5.102,8.273-5.606Z" fill="#cccccb"/>
      <path d="M268.981,92.143c-3.799.159-6.799-.519-8.556-3.737,1.894-.613,3.53-.365,5.318-.02,1.254,1.076,2.444,1.937,3.237,3.757Z" fill="#cecdcb"/>
      <path d="M262.658,56.383l-4.477,2.003c.785-3.844,3.96-6.133,7.451-6.766l-.763,1.825c-.473,1.13-.995,2.395-2.21,2.939Z" fill="#cbcaca"/>
      <path d="M311.44,55.858l-4.688-1.08c-1.638-.377-3.179-.74-4.24-2.296,4.002-1.435,7.346-.942,8.927,3.376Z" fill="#dbdad9"/>
      <path d="M289.16,47.946l-4.967,1.07c1.194-3.877,4.832-4.336,8.744-3.989-.844,1.563-1.99,2.534-3.777,2.919Z" fill="#dad9d8"/>
      <path d="M308.321,151.66c.374.878,1.118,1.735.676,2.954l-3.631-1.734c-1.555-.743-2.606-1.785-2.967-3.498l2.251.016c1.841.013,3.016.724,3.671,2.263Z" fill="#dbdbd9"/>
      <path d="M274.066,48.138c-1.747,4.399-2.701,5.09-7.27,5.922,1.158-3.461,3.98-5.558,7.27-5.922Z" fill="#d9d9d7"/>
      <path d="M279.852,117.093c-3.76.418-5.573-1.649-6.198-5.852,3.583.726,4.559,2.302,6.198,5.852Z" fill="#dddcdb"/>
      <path d="M284.027,123.883l-4.651-.87c-1.474-.276-1.996-2.479-3.001-3.439.968-1,1.917-.181,2.808.103,2.22.708,3.879,1.908,4.844,4.205Z" fill="#dadad9"/>
      <path d="M313.576,102.491c.282.939.488,1.895,1.151,2.82l-1.337,1.024c-2.397-1.47-3.398-3.815-3.529-6.717,1.483.699,3.281,1.428,3.715,2.873Z" fill="#d7d7d6"/>
      <path d="M250.621,62.166c.466-1.666.938-3.612,2.347-4.337l3.721-1.913c-.656,2.981-2.585,5.728-6.069,6.25Z" fill="#dddcdb"/>
      <path d="M239.864,67.189c-1.408,1.17-3.468.307-5.098.066,1.651-1.804,3.848-3.025,6.449-3.603-.33,1.192-.465,2.748-1.351,3.537Z" fill="#dad9d6"/>
      <path d="M249.221,59.924c-1.263,4.13-1.747,4.551-6.093,5.749l1.737-3.294c1.118-1.257,2.78-1.827,4.356-2.455Z" fill="#dfdede"/>
      <path d="M305.045,50.088c-3.45-.263-5.887,1.931-8.139-.182,3.532-1.888,7.262-2.858,8.139.182Z" fill="#dddcda"/>
      <path d="M238.472,71.75c-2.734,1.523-4.439,3.107-7.243,1.197l3.085-1.868c1.263-.765,2.717.062,4.157.671Z" fill="#deddda"/>
      <path d="M296.003,48.709c-.996.584-2.277.945-3.527.385,1.787-3.153,3.771-3.478,7.155-2.513l-3.628,2.127Z" fill="#e2e2e1"/>
      <path d="M307.678,174.868c-2.624-.717-4.428,1.098-6.757,1.799.173-1.315,1.473-1.342,2.186-1.904,1.766-1.392,4.02-1.508,6.033-.517,1.306.643,4.589.152,3,1.38-.24.185-.854.528-1.263.213-.995-.765-2.078-.665-3.199-.972Z" fill="#d6d5d4"/>
      <path d="M312.014,171.843c-1.92-1.538-3.827-2.319-6.318-2.104l-2.046-.133c2.863-3.14,5.554.611,8.096-.617l.268,2.854Z" fill="#dad8d6"/>
      <path d="M323.087,128.737l-3.184-6.799c-.377-.806.252-1.911.903-2.123l1.644,4.924c.063,1.261.926,2.279.638,3.997Z" fill="#dcdcda"/>
      <path d="M305.728,190.233c-.225-1.928.679-3.302.974-4.964l.66-3.708c1.364.943.645,2.304.578,3.435-.119,2.006-.604,3.699-2.212,5.237Z" fill="#e9e9e9"/>
      <path d="M317.23,110.627l-3.309,1.4c-.033-1.441,1.219-1.333,1.958-1.669,2.459-1.117,4.727-2.104,7.567-2.323-1.827,1.715-4.056,2.075-6.216,2.592Z" fill="#dad9d8"/>
      <path d="M302.804,189.094l-.074-3.096.938-2.836c.187-.565.057-1.123.524-1.27.294-.093,1.045.293,1.075.675-.874,2.157-1.188,4.334-2.464,6.527Z" fill="#dededd"/>
      <path d="M312.089,166.169c-.513.544-1.144-.303-1.523-.451-2.258-.884-4.94-.46-5.402-1.131-1.082-1.572,2.333-.353,3.785-.191l2.78.31c.169.391.328,1.014.36,1.462Z" fill="#ececeb"/>
      <path d="M331.84,122.709c-1.88-1.208-3.37-2.624-5.11-4.417,2.044.055,4.678,2.088,5.11,4.417Z" fill="#e6e5e3"/>
      <path d="M328.068,123.443c.211.239-.3.42-.38,1.973-.009.179-.219.458-.517.475-.284-1.466-.863-2.64-1.526-4.042-.902.256-.777-.796-.041-.638,1.049-.059,1.363.986,1.876,1.566l.588.665Z" fill="#cac9c7"/>
      <path d="M324.732,123.446c-.855.249-.942-.575-1.243-1.081-.536-.901-1.305-1.834-1.172-2.793.234-.386,1.174-.513,1.278-.226.145.803.406,1.871.834,2.337l.629.686c.277.302-.158.796-.326,1.076Z" fill="#dad9d7"/>
      <path d="M312.769,188.213c.442,1.902-1.468.732-1.557-5.202.055-.052.224-.155.31-.162l1.248,5.364Z" fill="#f4f4f4"/>
      <path d="M310.231,179.864c-1.11.523-2.285.148-3.461-.078l-2.803-.539.203-.245c1.975.075,3.887.383,6.061.862Z" fill="#676564"/>
      <path d="M301.441,170.04c.441,1.891-.2,3.42-.806,2.862-.878-.809.221-2.557.806-2.862Z" fill="#989695"/>
      <path d="M314.79,103.491c.229.274.472.503.547.945.125.736-.139.514-.611.875-.663-.925-.868-1.881-1.151-2.82l.4.041c-.137.491.244,1.027.815.959Z" fill="#7e7d7f"/>
      <path d="M324.732,123.446c.306-.125.911.29.28.625.227.058.505.574.238.834-.498-.104-.862-.884-.518-1.458Z" fill="#6e6e6e"/>
      <path d="M327.925,126.774c-.004-.142.577-.189.69-.111.113.077.279.208.183.512-.05.158-.312.28-.501.185-.122-.061-.36-.202-.372-.586Z" fill="#525050"/>
      <path d="M314.79,103.491c-.571.068-.952-.468-.815-.959.604.043.598.699.815.959Z" fill="#dedcdc"/>
      <path d="M178.138,279.165c-1.172,6.068-5.035,10.007-11.29,8.744l-22.635-4.571-14.466-2.778c-2.616-.502-4.6-2.213-5.7-4.66-1.381-3.672-1.094-7.459-.477-11.334l3.295-20.676-21.641,4.072c-2.693.507-5.245.939-7.839.532-5.47-.858-7.687-5.533-8.876-10.796l-5.137-22.734-3.436-15.582c-1.051-4.767,1.302-9.15,6.132-10.279l28.394-6.637,11.074-2.503c2.662-.602,5.797-.004,7.738,1.988,1.42,1.457,1.921,3.533,2.436,5.481l9.156,34.621,2.347-13.4,3.538-24.097c.418-2.849,2.512-5.269,5.231-5.994,2.301-.614,4.653-.37,7.122-.211l29.119,1.866c2.192.14,4.412.305,6.425,1.138,3.189,1.318,5.159,4.605,5.002,8.005l-.274,5.925,13.103,2.724,17.443,3.928,8.472,2.148c4.147,1.051,7.522,5.004,6.684,9.378l-2.199,11.476-4.453,19.283-1.645,6.62c-.637,2.561-1.346,5.052-2.658,7.361-3.079,5.421-8.764,3.997-14.799,2.485l-30.484-7.638c-3.042-.762-4.654-3.195-5.128-6.018-.963-5.734,1.835-7.978-1.711-8.572l-7.865,40.706ZM154.158,187.929l-5.116,35.007,12.895,2.058,18.123,2.475c2.66.243,5.029,1.678,5.644,4.502l9.412,1.186c.864.109,1.477-.485,1.55-1.316l2.047-23.404,1.669-18.031c.239-2.58-.176-5.224-2.851-6.198-1.169-.426-2.534-.352-3.627-.44l-11.55-.931-23.387-1.452c-2.648-.164-4.536,1.533-4.536,4.234l-.273,2.31ZM98.166,240.686l22.628-5.03,18.4-3.983c.905-.196,1.702-.809,1.986-1.391.38-.78.181-1.535-.043-2.371l-5.103-19.091-5.875-22.697c-.464-1.794-1.876-3.097-3.995-2.627l-27.341,6.057-12.347,3.092c-2.233.559-3.508,2.698-2.999,5.018l3.973,18.102,4.85,20.888c.611,2.632,2.816,4.711,5.866,4.033ZM229.625,254.959c1.718.414,3.086.442,4.221-.414.865-.652,1.484-1.736,1.762-2.977l2.211-9.868,6.523-28.191c.359-1.551.709-2.599-.187-4.032-.587-.938-1.594-1.699-3.029-2.098l-26.106-6.175-11.02-2.257-2.173,25.776-.968,8.265c-.509,4.347-3.973,7.476-8.644,7.051-1.471,1.89-1.427,5.565.967,6.142l36.442,8.777ZM140.858,266.25l4.909-27.099c-.33-.817-1.305-1.047-2.14-1.113-.873-.069-1.391.706-2.203,1.005l-10.561,3.892-2.196,13.615-1.451,10.364c-.724,2.382-.397,5.091,1.652,6.612l12.53,2.328,25.771,5.198c1.435.289,2.764.476,4.063.196,1.36-.293,2.089-1.251,2.333-2.547l3.276-17.347,5.3-28.61c.367-1.979-2.158-2.733-3.366-2.898l-10.292-1.407-3.493-.31-3.977-.455-11.737-1.808c-1.299-.2-3.134-.714-4.135-.092-.882.784.022,2.217.179,2.959.459,2.164.264,4.234-.456,6.336,1.696.541,3.371.534,5.13.827l7.174,1.195c1.67-1.161,3.578-1.031,5.441-.682-.653.79-.844,1.991-.161,2.084l3.777.514-.964,5.474-13.04-2.182-1.075,6.612,10.936,1.631-.998,5.63-10.953-1.819-1.615,7.545,7.319,1.207,4.966.696-1.21,5.897-18.731-3.448ZM99.698,243.875l2.763-.346,17.557-3.859,21.377-4.636c.198-.043.672-.578.608-.741-.08-.208-.337-.413-.508-.436-.116-.016-.371.198-.564.238l-31.003,6.456-10.911,2.234c-2.259.462-4.188-.009-6.264-1.105,1.803,2.098,4.29,2.528,6.945,2.196ZM195.912,236.098c.399-.31.026-.843-.425-.526l-9.053-.737c.727.973,1.799.594,2.81.729,2.237.299,4.288,1.02,6.668.535ZM235.007,257.157c-1.237-.299-2.412.636-3.762.519l-31.173-7.464-8.221-1.781c1.053,1.295,2.506,1.421,3.843,1.737l25.245,5.981,9.671,2.418c1.455.364,3.17-.493,4.397-1.411ZM173.75,283.066c-2.411.889-4.082.819-6.23.382l-25.432-5.175-9.667-1.78-5.338-1.338c.467,1.092,1.483,1.281,2.489,1.491l17.992,3.751,19.28,4.435c2.638.607,5.279.564,6.905-1.766Z" fill="#070707"/>
      <path d="M262.422,255.751c1.299,6.07,4.167,13.309,6.055,19.078,2.162,6.387,4.339,12.88,3.574,19.786-.265,2.284-1.09,4.824-2.775,6.38-.416.388-.716.534-.818.414-.032-.036-.047-.097-.045-.18-.016-.597,1.094-2.472,1.476-4.297,1.918-9.458-3.18-18.89-6.272-27.726-4.408-10.983-5.865-22.919-6.282-34.676-.354-2.443.86-17.343.997-6.441.057,9.316,1.52,18.61,4.042,27.469l.049.194Z" fill="#090909"/>
      <path d="M32.051,238.553c-.601-6.221.252-12.682.836-18.882.647-6.163,1.97-18.174,2.492-23.473.077-1.198.229-5.479.742-5.124.716,2.128.373,5.1.4,7.414-.646,16.303-5.242,33.54.317,49.444,1.414,4.647,4.36,9.349,5.696,13.871-.046.156-.279-.008-.652-.446-.372-.44-.89-1.154-1.271-1.723-4.208-6.341-6.998-13.521-8.531-20.89l-.028-.191Z" fill="#090909"/>
      <path d="M256.425,184.923c.273,5.014,1.307,12.68,1.004,17.593-.147,1.308-.331,2.879-.739,4.074-.141.366-.263.447-.367.262-.824-3.682-.833-6.807-1.267-11.224-.695-9.206-2.145-23.347-2.866-31.162-.086-.82-.564-5.32.187-4.222.941,2.453,1.134,5.203,1.548,7.797,1.152,5.582,1.963,11.248,2.487,16.749l.013.133Z" fill="#070708"/>
      <path d="M140.858,266.25l18.731,3.448,1.21-5.897-4.966-.696-7.319-1.207,1.615-7.545,10.953,1.819.998-5.63-10.936-1.631,1.075-6.612,13.04,2.182.964-5.474-3.777-.514c-.683-.093-.492-1.294.161-2.084-1.862-.35-3.771-.48-5.441.682l-7.174-1.195c-1.758-.293-3.434-.286-5.13-.827.72-2.102.915-4.172.456-6.336-.158-.743-1.061-2.175-.179-2.959,1.001-.622,2.836-.108,4.135.092l11.737,1.808,3.977.455,3.493.31,10.292,1.407c1.208.165,3.733.919,3.366,2.898l-5.3,28.61-3.276,17.347c-.245,1.295-.973,2.254-2.333,2.547-1.299.28-2.628.094-4.063-.196l-25.771-5.198-12.53-2.328c-2.049-1.522-2.376-4.23-1.652-6.612l1.451-10.364,2.196-13.615,10.561-3.892c.812-.299,1.33-1.074,2.203-1.005.835.066,1.811.296,2.14,1.113l-4.909,27.099ZM152.318,231.834c.282-2.403,3.408-2.38,2.672-2.836l-.832-.516c1.817-1.082-.89-1.573-4.643-1.948.194.875-.314.927-1.02.985-.579-1.183-1.774-1.749-3.17-1.075,1.081,2.623.653,4.554,1.257,4.803.347.143.524,1.008,1.395.391l.322-.722c.039-.088.396.167.746-.366.506.115.492.761-.286.665,1.487.462,2.742-.669,3.559.62ZM170.391,232.616c.521.197.654-.03.782-.21.132-.186.184-.287.262-.613l1.44,1.167,2.187.349c-.925.398-.415,1.395-.358,1.746l1.44,1.017c.323.228,1.095-.443,1.608-.795.246-.17.814.571,1.07-.155.082-.235.15-.643.559-1.099.417-.465-1.135-.484-1.804-1.627-.623.648-1.349.702-1.674-.092-.165-.404-.557-1.016.304-1.238.2.118.451.405.689.183.287-.269.275-.386.155-.571-.181-.28-.472-.41-.768-.456l-7.105-1.112-3.899-.271-2.999-.397-2.907-.26c-.619-.055-.857-.161-1.038.06-.367.448-.344,1.017.379,1.325.212-.872.852-.358.683.208.919.318,1.075,1.068,1.152,1.697-1.076-.186-1.598-.089-2.237.192-.09-.279-.668-.734-.713-.458-.062.375-.157.664-.997.732.526.127,1.19-.028,1.357.961.297.184-.105.643.153,1.449.641-.592,1.017-1.201,1.537-1.066-.525.581-.061,1.209.497.757.039-.67.496-1.209.843-1.09.534.183.87.651,1.2,1.1.233.317,1.081-.217,1.117-.561l.14-1.348c.277.076.638.359.965.462l.979.308c.12.038-.268.591-.094.554.809-.172,1.08.069,1.242.48.067.17.326.321.065.715.406.545.936,1.515,1.658,1.957.698.261,1.044-.632.251-.936.551-1.013.099-1.565.154-2.322.707.119.88.005,1.131-.078.253-.083.497-.548.595-.662ZM139.263,256.469c.423-.087.48-.273.615-.792.498.488.661.522.957.509.333-.015.445-.196.51-.503.069-.328-.191-.517-.213-.684.165-.444.201-.861.149-1.209-.042-.277-.178-.334-.826-.743.28-.159.838-.554.83-.799-.006-.184-.512-.401-.213-.904.327-.551.616-.795.266-1.869.588.407,1.07.485,1.433.055.217-.257.552-.559.525-1.274-.462-.063-.671-.152-.768-.24-.471-.43.657-1.172.416-1.854-.156-.44-.324-.657-.693-.844.622-.151.932-.189,1.086-.345.102-.104.165-.567.284-1.412-.441.614.086.55.285.574.38.047.471-.339.452-.689.073-.547-.344-1.056.239-1.542.221-.424-.051-1.468.164-2.317.097-.448-1.01-.942-1.467-.882-.489.064-2.679,1.411-5.834,2.539l-5.805,2.076c-1.044.424.213,2.003.467,2.731.731,2.094,1.383,3.511,1.078,6.034-.055.36.214.402.409.242.096-.078.245.38.06.484-.112.063-.224.308-.805.165.463,1.419.314,2.443.937,2.754.457.228.999.166,1.402-.353l1.493,1.86c.357.444-.479,1.502-1.439,1.565-.108.728.769.944,1.155,1.061.439.133.903-.595,1.17-1.075,1.804,1.533.106-1.995,1.683-2.319ZM168.813,258.702c.238-.819.218-1.62-.159-1.865-.987.024-1.923,1.219-1.297,2.003.282.353,1.363.143,1.456-.137ZM132.833,269.522l-1.091-1.784c1.05-.719.445-1.707,1.161-2.455-.988.03-.832-.7-.998-.795-.169-.098-.629.172-.827.408-.232.548-.845.804-1.231.203-.551.7-.883-.472-.383-.74-.772-.26-.687-.395-.991-1.088l-.895,5.01c-.453,2.534,1.111,4.137,3.488,4.913l1.075.351c1.013.331,3.013.122,3.039-.646.008-.225-.253-.476-.715-.615.286-.195.586-.625.217-.937l-.554-.468c.88-.614.133-.895-.112-1.219-.4-.53-.848-.182-1.182-.134ZM168.242,274.848l2.622-9.133-3.526-.635-1.798,9.339c1.194.041,1.847.175,2.702.429Z" fill="#f3e8c6"/>
      <path d="M193.903,183.769c1.093.088,2.458.014,3.627.44,2.675.974,3.09,3.617,2.851,6.198l-1.669,18.031-2.047,23.404c-.073.831-.687,1.425-1.55,1.316l-9.412-1.186c-.615-2.824-2.983-4.259-5.644-4.502l-18.123-2.475-12.895-2.058,5.116-35.007c.424.373.678.376,1.126.278-.363-1.281.924-1.398,1.133-1.872l.812-1.845c.196-.496.989-1.014,1.687-1.303-.198.52.264,1.375.663,1.375.942-.57,1.544-.537,2.582-.057.361.167,1.275-.178,1.559.602.35.962,2.533-1.563,2.511.524l.486-.398c.183-.15.63.225.68.369.387-.487.638-.547,1.175-.348-.132-.543.325-1.105.585-1.066l1.411.211,6.258.076,3.34.029c.118-.29.408-.634.653-.678.278-.05.583.268.717.357.317-.439.796-.347.861-.154.395,1.17.917.699,1.939,1.653-.236.237-.351.531-.241.762.093.195.556.242.77.331.174.072.381-.013.375-.32.836.935,1.382.036,1.811.01,1.16-.07,1.092-.754,1.251-1.61.077-.415,1.329-.881,1.725-.097,1.279-.346,2.509-.247,4.092.162.017-.477-.208-.747-.214-1.151ZM170.918,192.269c1.226-.328.086-2.162-.095-2.216-.219-.066-.406.167-.612.223l-.893.243.165.591c-.554.632-.576,1.079-.381,1.36.358.514.957.353,1.473.437.178.14.463.779.802.459.175-.165.454-.568.371-1.05-.037-.215-.563.127-.829-.045ZM187.439,190.904c1.306-1.288-.101-.358-2.346-.819.454.358.853,1.083.532,1.58-.181.28-.339.459-.475,1.14l2.391-.02c.705-.006.737-.67.553-1.031-.207-.407-.19-.685-.655-.85ZM179.304,216.026l1.142,6.134,6.877.811-6.305-30.759-8.119-.496-12.633,27.744c2.182.461,4.353.648,6.498.608l2.342-5.252,10.198,1.211ZM198.839,200.016l.124-.839c-.002.016-3.692-2.396-4.609-.3-.376.86.047,1.746.552,2.168.464.387,3.726.37,3.932-1.029ZM191.268,215.747c-.077-.082-.385-.456-.281-.67.076-.155.328-.399.5-.509.09-.058.356.367.477.333l1.756-.498c-.025-.492-.09-1.211.328-1.769-1.123-.973-.165-2.557-.833-3.455-.136-.184.548-.46.484-.679-.078-.267-.683-.625-.704-.941l-1.449-.756c-.17-.201-.599.468-.886,1.244-.323-.464-.438-.79-.891-1.087-.323-.212-.559.221-.732.672-.154.404-.03.533.074.88.095.32-.45.797-.712.522-.166-.174-.326-.378-.414-.587-.083-.199-.085-.518.474-.914-.795-.376-1.142-.97-.854-2.091-.55.376-.714.319-1.034.336-.452.024-.489-.475-.644-.625-.36-.35-.582-.046-.672.112-.097.172-.401.66.177,1.184-.324.228-.878.118-.768-.728-.59.438-.184,1.62.427,1.466.5-.125.558.644.327,1.091-.202.434-.23.584-.115.741.205.282.292.609.981.449-.885,1.36-.633,4.223.462,4.853.358.206.336,1.117,1.127,1.019.196-.024.709.425.67.61-.096.293-.521.73-.54,1.162-.016.366.324.924.692.77.426-.178.779-.186,1.424.017.529-.314.289-.871-.508-.76.53-.331,1.209-.761,1.655-1.393ZM192.095,224.447l2.019-7.109c-.933-.454-1.845-.518-2.728-.38l-1.88,7.016c.789.294,1.598.672,2.59.473ZM167.923,224.828c.326.224.618.342.836.34.181-.002.153-.511.378-.678.118.448.187.694.318.835.145.156,1.011,0,2.208-.007-.026-.585.059-.956.202-1.131s.888.001.989-.257c.581-1.501,2.501-.876,2.318-1.96-.017-.103-.211-.355-.343-.042-.378.896-.357-1.212-.551-1.219l-.836-.03c-.423-.015-1.142-.101-1.541.064-.136.057.094,1.862-.545,2.539-.182.193-.596-.03-.976-.315-.423.499-.643.429-.896.459-.855.101-.204-1.696-.98-1.883-.217-.052-.765.361-.945-.106l-.213-.551c-.046-.12-.413-.141-.6-.108-.308.054-.923,2.608-.393,2.972l1.572,1.078ZM190.652,231.759c.921.328,2.183.461,2.895-.249.17.068.369.366.713.211.392-.176.562-.525.26-.797-.106-.096-.385-.165-.454-.617,2.584-.58,2.344-4.308,2.248-4.313l-.683-.035c-1.996-.102-2.844.497-2.698-.901-2.447.393-4.476-1.01-3.665.767-.489,1.657-1.499,2.889-2.609,2.372-.445-.207-.648-.868-.522-1.447-.573-.649-.992-1.189-1.4-1.018-3.77,1.58.663,1.862,1.246,5.492.277.184,1.202-.073,1.306.165.883.567,2.267-.021,3.362.369Z" fill="#f3e8c6"/>
      <path d="M229.625,254.959l-36.442-8.777c-2.393-.576-2.438-4.251-.967-6.142,4.671.424,8.135-2.705,8.644-7.051l.968-8.265,2.173-25.776,11.02,2.257,26.106,6.175c1.435.399,2.442,1.16,3.029,2.098.896,1.433.546,2.481.187,4.032l-6.523,28.191-2.211,9.868c-.278,1.242-.898,2.326-1.762,2.977-1.135.856-2.503.827-4.221.414ZM222.748,209.427c1.289-1.231,2.929-1.985,2.917-2.236-.033-.692-1.456-.791-1.937-.768l.465-2.005c.108-.464-.825-.807-1.656-.689-1.092.154-1.535,1.881-.503,3.061-1.231-.172-1.651-.15-2.604-.052-.433.044-.456.74-.41,1.118.067.546.502,1.134,1.329.773.201-.087.445-.404.787-.296.215.068.523.156.642.722.404.002.616-.154.725-.751.19.276.029.511.244,1.124ZM237.065,215.382c-.613-.205-1.238-1.009-1.6-1.673-.108-.198.241-.56.241-.757s-.488-.613-.537-.648c1.168-.434,1.579-.784,2.344-1.398-.428-.168-.834-1.337-.443-1.531.339-.168.464-.548.577-.696.072-.095.311.125.405.236.169.199.023.436-.144.559-.154.113.374.619.269.744l-.374.449c.779.164,1.24-.357,1.187-.961-.098-1.11.856-1.546,2.19-1.474l-1.427-.466-2.439-.443c-1.698-.814-3.599-.906-5.841-1.523l-.848,1.568c.531.252.821.059.852.214.045.225.191.827.758.449-.315,1.121-1.12,1.315-2.335,1.467l-2.113,1.064c-.404.534-.563.344-.806.305-.212-.035-.283,1.142-.062,1.183.828.153,1.561-.001,2.565-.053.326,2.012-.649,4.256.632,4.569.284.07.964-.078,1.049-.442.065.68.212.863.87.913-.08.487-.003,1.007.465.958.239-.025.79,0,.847-.218.069-.265-.032-.836-.103-1.036.552-.037.865-.036.899.064l.175.504c.114.329.942.43,1.261.294.783-.334.364-1.594,1.486-2.221ZM228.251,235.545c.767-3.149.135-6.164-2.773-8.33,2.615-1.133,3.768-3.26,4.288-5.687,1.295-6.046-4.629-9.61-10.436-10.918l-7.774-1.752-6.087,23.206-1.503,5.999,8.712,2.357c3.134.848,6.343,1.688,9.498,1.158,3.21-.539,5.324-2.946,6.075-6.032ZM239.027,213.944c.022.151.706.357.808.139l.354-.762c.083-.179-.871.151-.375-.762l-1.447-.202c.083-.269-.191-.646-.532-.468-.168.088-.373.395-.195.546.095.081.465.083.453.162-.26.385-.166.689.366.884-.522.323-.273.933-.003.919.137-.007.428.2.571-.456ZM207.412,216.741c.239-.957.16-1.514-.046-2.022-.936.03-1.113.013-1.634.415-.181-.517-.464-.506-.637-.443-.256.094-.344.528-.158.539.281.017.38.044.64.217.207.139.263.318.119.455-.074.07-.093.131-.007.353.703-.055.987.034,1.724.486ZM238.185,230.266c.178-1.032-.586-1.469-.651-1.875l-.255-1.581c-.488.643-1.101-.223-.361-.295.266-.281-.241-.815-.544-1.007-.519-.33-.929-.432-1.407.321-.127.2-.622.769-.732.691l-.892-.628c-.243-.171-.972.241-1.342-.178-.313-.355.791-1.606.129-2.196.384.343-1.952-.151-2.008-.131-.192.069-.558.487-.559.764l-.036,8.328c.799-.068,1.212-.463,1.896-.126-.32.374-.506.649-.488.937.01.168.393.284.487.176.085-.098.451-.296.655-.381.534-1.944.109-3.591,1.152-3.012.565.313.991.096,1.79.091-.302.707-.181.983.105,1.133.42.221,1.105.136,1.494-.128.178.063.709.38.984.22.249-.145.494-.617.581-1.122ZM200.738,245.607c.348-.54.922-.443,1.13-.084.17.293.246.712-.527,1.16.961.396,1.87.573,2.451-.544.637-1.226,2.951-1.407,4.5-.605-.172-.701-.303-1.492.233-1.977-.424-.177-.9-.969-.489-1.109l1.278-.436c-.269-.171-.486-.558-.425-.784.034-.126.574-.082.275-.887-.256.609-1.124.381-.677-.236-1.257-.52-2.317-.707-3.984-1.029.043.457.583.687.473.888-.086.158-.197.584-.373.653-.377.147-.438-.77-.565-2.017-.238.21-.48.305-.618.219-.112-.07-.361-.279-.318-.347l.337-.53c-.204-.329-.48-.711-.355-.901.088-.134.701-.369.523-.36-.366-.434.174-.847.533-.67-.451-.484-.521-1.06-.378-1.318.124-.223.684-.222.616-.946-.046-.496.787-1.375.26-1.849l-1.21-1.089c-.438-.395-.901-.686-1.359-.912-.464,3.767-1.667,6.843-3.786,9.733-.155.212.236,1.044.408,1.012.162-.029.28-.375.553.008.051.37-.276.508-.405.6-.439.313.658,1.427.257,1.876-.177.198-.797.131-.946.264l-.787.701c-.094.084-.385-.53-1.123-.239l1.002-1.96c-.409.132-.635.341-1.258.029.231.031.47-.252.381-.445-.071-.153-.275-.331-.373-.283s-.268.307-.434.151c-.933-.877-2.287-.903-3.251.165-.471.533-.47,1.941-.037,2.592l.377.849c.553.286.62.555,1.128.494.56-.068.863-.186,1.176-.608.182.46.648.455.686-.192.215.327.216.752-.281,1.294.696.302,1.449-.122,1.838.218,1.257,1.095,2.238-1.294,3.547-.549ZM230.627,248.055l2.187-5.898c-1.087-.704-2.122-.991-3.138-1.116l-1.667,6.821,2.618.193ZM212.884,250.062c.92-1.57,2.775-1.112,3.071-1.341.959-.744-.504-2.878-.338-3.835.337-.844-.006-1.346-.44-1.631-.462-.303-1.178-.808-1.841-.366-.21,1.098.041,2.423-.436,3.718.107.29.454.793.297.969-.164.184-.48.386-.824.502.086.094.31.466.179.61l-.379.42c-.149.165-.2.781-.068.683.141-.106.58-.278.778.272ZM230.952,252.5c.089,1.093,1.271,1.135,1.763,1.127.48-.009,2.272-1.146,1.926-2.295.712-.674.914-1.582.581-2.299,1.048-.792.437-1.921-.149-2.29.573-.339.537-.782.368-1.034-.09-.134-.32-.368-.53-.383-.241-.018-.419.334-.527.61-.454.596-1.268.969-2.01,1.356.132-.357.272-.542.13-.717-.887-1.092-.455.713-1.777,2.281,1.308.866.131,2.494.225,3.645ZM223.985,250.66c.984.337.982-.695,1.218-.832.383.112,1.071.156,1.387-.314.893-1.329-2.252-2.236-5.243-1.48l-.082,1.262c-.443.894-.511,1.434.049,2.292-1.126-.192-.871.978-.16.8.479-.552.799-.002.975-.046s.34-.361.661-.596c.326.276.253.412.26.589.017.406.39.345.516.213.403-.421.759-1.542.419-1.887ZM230.237,252.794l.412-2.769c-1.001-.669-1.958-.833-3.258-.68l-.274,2.668,3.119.781Z" fill="#f3e8c6"/>
      <path d="M99.698,243.875c-2.655.332-5.142-.097-6.945-2.196,2.077,1.096,4.006,1.567,6.264,1.105l10.911-2.234,31.003-6.456c.193-.04.449-.254.564-.238.171.023.427.228.508.436.063.164-.411.699-.608.741l-21.377,4.636-17.557,3.859-2.763.346Z" fill="#fcfdfe"/>
      <path d="M173.75,283.066c-1.626,2.33-4.267,2.373-6.905,1.766l-19.28-4.435-17.992-3.751c-1.006-.21-2.022-.398-2.489-1.491l5.338,1.338,9.667,1.78,25.432,5.175c2.148.437,3.818.506,6.23-.382Z" fill="#fcfdfd"/>
      <path d="M235.007,257.157c-1.226.918-2.941,1.775-4.397,1.411l-9.671-2.418-25.245-5.981c-1.337-.317-2.79-.443-3.843-1.737l8.221,1.781,31.173,7.464c1.35.118,2.525-.817,3.762-.519Z" fill="#fcfdfe"/>
      <path d="M195.912,236.098c-2.379.485-4.431-.236-6.668-.535-1.012-.135-2.083.244-2.81-.729l9.053.737c.451-.316.824.216.425.526Z" fill="#fbfcfd"/>
      <path d="M102.199,223.841c1.005-1.84,2.205-3.462,3.534-4.897,2.891,2.653,7.201,3.652,9.315,1.423.637-.671,1.251-2.012.647-2.949-2.034-3.16-8.5-2.301-13.31-5.547-2.78-1.877-3.876-4.706-3.377-8.077.445-3.009,2.633-5.393,5.407-6.611,4.599-2.019,9.599-1.393,13.694,1.356l-2.794,5.062c-2.163-1.569-4.432-2.231-6.786-1.647-1.24.308-2.218,1.287-2.332,2.408-.142,1.402.953,2.374,2.262,2.792l9.633,3.076c3.372,1.077,5.048,4.53,5.09,7.905.043,3.439-2.116,6.518-5.438,7.955-3.799,1.643-8.251,1.656-12.063.081l-3.482-2.329Z" fill="#070807"/>
      <path d="M133.237,229.223l-3.088.393-2.249-8.066c.976-.742,2.434-.825,3.794-.827l1.542,8.5Z" fill="#050606"/>
      <path d="M168.242,274.848c-.855-.255-1.508-.389-2.702-.429l1.798-9.339,3.526.635-2.622,9.133Z" fill="#040505"/>
      <path d="M179.304,216.026l-10.198-1.211-2.342,5.252c-2.145.04-4.316-.147-6.498-.608l12.633-27.744,8.119.496,6.305,30.759-6.877-.811-1.142-6.134ZM178.565,209.81l-2.006-11.521-4.955,10.663,6.96.858Z" fill="#070707"/>
      <path d="M192.095,224.447c-.992.199-1.801-.179-2.59-.473l1.88-7.016c.883-.139,1.796-.074,2.728.38l-2.019,7.109Z" fill="#050505"/>
      <path d="M228.251,235.545c-.752,3.087-2.866,5.493-6.075,6.032-3.156.53-6.365-.31-9.498-1.158l-8.712-2.357,1.503-5.999,6.087-23.206,7.774,1.752c5.807,1.309,11.73,4.873,10.436,10.918-.52,2.427-1.672,4.554-4.288,5.687,2.908,2.166,3.54,5.181,2.773,8.33ZM219.217,223.168c1.667.491,3.2-.015,3.895-1.546.474-1.045.513-2.894-.706-3.719-1.674-1.133-3.555-1.6-5.755-2.129l-1.696,6.138,4.263,1.256ZM219.761,235.716c1.327-.342,2.095-1.658,2.131-2.771.113-3.521-4.24-4.642-8.218-5.442l-1.629,7.214c2.892.769,5.244,1.636,7.716.999Z" fill="#070808"/>
      <path d="M230.627,248.055l-2.618-.193,1.667-6.821c1.016.124,2.051.412,3.138,1.116l-2.187,5.898Z" fill="#050606"/>
      <path d="M230.237,252.794l-3.119-.781.274-2.668c1.299-.153,2.257.011,3.258.68l-.412,2.769Z" fill="#090b0a"/>
      <path d="M98.166,240.686c-3.05.678-5.255-1.401-5.866-4.033l-4.85-20.888-3.973-18.102c-.509-2.32.765-4.459,2.999-5.018l12.347-3.092,27.341-6.057c2.12-.47,3.531.833,3.995,2.627l5.875,22.697,5.103,19.091c.223.836.422,1.591.043,2.371-.284.582-1.081,1.195-1.986,1.391l-18.4,3.983-22.628,5.03ZM126.861,200.734c-.823.318-.997.483-1.136.622-.162.162-.27.564.252.538.308-.016.117.958-.121,1.189,1.198.743,1.973,1.947,1.485,3.197l2.373.326c.207.028.477.335.617.189.071-.075.357-.285.308-.377-.585-1.101-.056-1.974-.482-2.779l-1.346.113c-.195.016-.362-.408-.033-.622.293-.191.268-.319,1.003-.289-.563-.453-.522-.801-.316-1.078.116-.156.621-.339.83-.454l-.151-3.035c.471.049.897-.286.906-.457s-.466-.452-.646-.645c-.019-.051.453-.352.103-.51-.635-.285.045-1.222-.19-1.604-.123-.199-.525-.246-1.051-.254.345-.126.392-.61.219-.588-.133.017-.513.01-.548-.328-.031-.297.283-.463.346-.548.061-.082-.222-.246-.267-.445.389.098.915-.364.765-.857-.865-2.829.789-3.899-.08-5.678l-.323-.662c-.084-.171.022-.365-.093-.981-.369.517-1.111.186-.814-.345-.566-.329-1.654-.38-2.625-.173l-14.639,3.117c.147,1.079.76,2.189,1.877,2.294-.152-.773.512-.481.562-.238.036.173.231.659.444.752,1.469-.346,2.417-1.701,2.613-1.509l.507.495c.193-2.474,4.142-1.845,3.982-2.111.527.878,2.245-1.304,2.906-.083.147.271.35.551.521.461.13-.069.165-.653.735-.143l.109-1.535c.605.073,1.241.098,1.969.015.542,1.585-.068,3,.408,4.617-.133.004-.524.07-.58.225l-.17.464c-.325-.285-.819-.359-1.065-.485-.152-.078-.041.838-.148.977-1.369,1.783-3.313,2.383-2.553,3.641.007.742-.579,1.838-.849,2.749.99.585,1.701,1.488,1.848,1.419.278-.131.719-.769.766-.886l1.772,2.301ZM101.553,190.934c1.739-1.152,2.705,1.777,5.683-.442.611.468,2.462-.741,3.277-1.907-.629.032-.839-.298-.525-.995l-4.309,1.002-.28.787c-.03.084-.521-.029-.477-.151l.207-.581-2.061.643c-1.083.338-2.669.19-3.439,1.009.135.785-.981.493-.347-.205-.819-.059-1.194.149-1.987.747.787-.069,1.189.31,1.481.461.681-.318,1.965-.685,2.777-.366ZM87.632,198.376c.056-.153.122-.592.271-.65.228-.088.553-.034.549-.107.465-2.539,2.878-4.635,3.177-3.827.245.664.078,2.23.618,1.739l.52-.473c.2-.182.746-.113,1.068-.317-.271-.153-.443-.468-.348-.716.063-.164.271-.321.389-.372-.537-.046-.461-.674.101-.495.132.042.294-.498-.288-.311l-.008-1.568c-.617.217-.871.891-1.07.767-.255-.159-.68-.336-1.058-.238l-5.326,1.389c-1.26.329-2.873,2.468-1.887,4.93.646-.092.608-.736.817-.968.148-.164.439.092.946-.143.263.216.232,1.195-.078,1.22l-1.385.11c-.303.638-.217,1.934.058,2.327.667.673,2.112.79,2.114.164.004-.954-.026-1.49.82-2.459ZM102.199,223.841l3.482,2.329c3.813,1.576,8.265,1.563,12.063-.081,3.322-1.437,5.481-4.516,5.438-7.955-.042-3.376-1.719-6.829-5.09-7.905l-9.633-3.076c-1.309-.418-2.404-1.39-2.262-2.792.114-1.121,1.091-2.1,2.332-2.408,2.355-.584,4.623.078,6.786,1.647l2.794-5.062c-4.095-2.749-9.095-3.375-13.694-1.356-2.774,1.218-4.962,3.602-5.407,6.611-.499,3.372.597,6.201,3.377,8.077,4.81,3.246,11.276,2.387,13.31,5.547.604.938-.011,2.278-.647,2.949-2.114,2.23-6.424,1.23-9.315-1.423-1.328,1.435-2.529,3.057-3.534,4.897ZM133.237,229.223l-1.542-8.5c-1.361.002-2.818.085-3.794.827l2.249,8.066,3.088-.393ZM138.7,230.945c-.616-.631.136-1.386.09-1.893l-.19-2.105c.283-1.499-.328-2.512-1.402-3.282.438-.245.428-.553.395-.706-.03-.14-1.56-.801-1.785-.382l-.413.77-1.391,1.111c-.141.147-.689-.121-.77-.363-.471,1.204.129,1.689,1.073,2.338-.033.903-.674.951-.678-.055-.364.462-.126,1.127.165,1.714.202.406.979.686,1.932.519l.043,2.848c.005.357.725.362.769.099.145-.859.302.224,2.162-.612ZM102.522,227.645c.406-.778.342-1.13-.052-1.592-.201-.236-.934-.432-.913.223.01.318-.432.954.02,1.285.204.15.744.468.945.084ZM118.235,230.302c.475-.086.599-.388,1.113-.128.288.146.646.056.491.738-.109.483,1.088.728,1.58.363.316-.235.601-.792.799-1.208.381.53.641.106.734-.027.086-.123.314.782.464.718,1.113-.479,1.581-1.798,1.618-2.884-1.324-.283-.243-1.374-.898-1.838-.564-.399-.849.235-1.079.426l-3.887.463c.328.821.003,1.425-.156,1.651-.365.054-1.325.027-1.272.534.032.309.185,1.246.495,1.19Z" fill="#f3e8c6"/>
      <g>
        <path d="M126.861,200.734l-1.772-2.301c-.047.117-.487.755-.766.886-.147.069-.858-.834-1.848-1.419.27-.911.856-2.007.849-2.749-.759-1.258,1.185-1.858,2.553-3.641.107-.139-.004-1.055.148-.977.246.126.741.201,1.065.485l.17-.464c.056-.154.448-.22.58-.225-.476-1.616.135-3.032-.408-4.617-.727.083-1.363.058-1.969-.015l-.109,1.535c-.571-.51-.606.074-.735.143-.171.09-.374-.19-.521-.461-.661-1.221-2.379.961-2.906.083.159.266-3.789-.363-3.982,2.111l-.507-.495c-.197-.192-1.144,1.163-2.613,1.509-.213-.092-.408-.578-.444-.752-.05-.242-.714-.535-.562.238-1.118-.105-1.73-1.214-1.877-2.294l14.639-3.117c.971-.207,2.06-.155,2.625.173-.297.531.445.862.814.345.115.616.009.809.093.981l.323.662c.868,1.779-.785,2.849.08,5.678.151.493-.375.955-.765.857.045.2.328.363.267.445-.063.085-.377.25-.346.548.035.339.415.345.548.328.173-.022.126.463-.219.588.526.007.928.054,1.051.254.236.381-.445,1.319.19,1.604.351.157-.122.459-.103.51.18.194.654.474.646.645s-.435.506-.906.457l.151,3.035c-.209.115-.713.298-.83.454-.207.277-.247.625.316,1.078-.735-.03-.709.098-1.003.289-.329.214-.162.639.033.622l1.346-.113c.426.805-.103,1.677.482,2.779.049.092-.236.302-.308.377-.14.147-.41-.16-.617-.189l-2.373-.326c.488-1.251-.287-2.454-1.485-3.197.238-.23.428-1.204.121-1.189-.523.026-.414-.376-.252-.538.139-.139.313-.305,1.136-.622Z" fill="#e0d6be"/>
        <path d="M87.632,198.376c-.846.969-.816,1.505-.82,2.459-.002.627-1.447.509-2.114-.164-.275-.393-.362-1.689-.058-2.327l1.385-.11c.31-.025.34-1.004.078-1.22-.507.236-.798-.021-.946.143-.208.231-.17.876-.817.968-.985-2.462.628-4.601,1.887-4.93l5.326-1.389c.378-.099.803.079,1.058.238.199.124.453-.55,1.07-.767l.008,1.568c.582-.187.42.353.288.311-.562-.179-.639.449-.101.495-.118.05-.326.208-.389.372-.095.248.077.563.348.716-.321.204-.868.136-1.068.317l-.52.473c-.54.491-.372-1.075-.618-1.739-.299-.808-2.712,1.288-3.177,3.827.004.074-.321.019-.549.107-.149.058-.215.497-.271.65Z" fill="#e0d6be"/>
        <path d="M138.7,230.945c-1.86.836-2.017-.247-2.162.612-.044.263-.764.258-.769-.099l-.043-2.848c-.953.168-1.73-.113-1.932-.519-.291-.587-.529-1.251-.165-1.714.004,1.006.644.958.678.055-.944-.649-1.543-1.134-1.073-2.338.082.243.629.511.77.363l1.391-1.111.413-.77c.225-.419,1.755.241,1.785.382.032.153.042.461-.395.706,1.074.769,1.685,1.783,1.402,3.282l.19,2.105c.046.508-.706,1.263-.09,1.893Z" fill="#e0d6be"/>
        <path d="M118.235,230.302c-.309.056-.463-.881-.495-1.19-.053-.508.907-.48,1.272-.534.159-.226.485-.829.156-1.651l3.887-.463c.23-.191.516-.825,1.079-.426.655.463-.426,1.555.898,1.838-.037,1.085-.505,2.404-1.618,2.884-.15.065-.378-.841-.464-.718-.093.133-.354.556-.734.027-.197.416-.483.973-.799,1.208-.492.365-1.689.12-1.58-.363.154-.682-.203-.592-.491-.738-.514-.26-.638.042-1.113.128Z" fill="#e0d6be"/>
        <path d="M101.553,190.934c-.813-.319-2.097.048-2.777.366-.292-.151-.694-.53-1.481-.461.793-.598,1.168-.806,1.987-.747-.634.698.483.99.347.205.77-.819,2.356-.671,3.439-1.009l2.061-.643-.207.581c-.043.122.447.235.477.151l.28-.787,4.309-1.002c-.315.697-.104,1.028.525.995-.815,1.167-2.666,2.376-3.277,1.907-2.978,2.22-3.945-.71-5.683.442Z" fill="#e0d6be"/>
        <path d="M102.522,227.645c-.2.385-.74.066-.945-.084-.451-.331-.009-.968-.02-1.285-.021-.656.712-.459.913-.223.394.463.457.814.052,1.592Z" fill="#e0d6be"/>
        <g>
          <path d="M193.903,183.769c.006.404.231.674.214,1.151-1.583-.409-2.813-.509-4.092-.162-.396-.784-1.648-.318-1.725.097-.159.856-.091,1.539-1.251,1.61-.428.026-.975.925-1.811-.01.006.307-.201.392-.375.32-.214-.089-.677-.136-.77-.331-.11-.231.005-.524.241-.762-1.022-.954-1.543-.482-1.939-1.653-.065-.193-.544-.285-.861.154-.134-.089-.438-.407-.717-.357-.245.044-.535.388-.653.678l-3.34-.029-6.258-.076-1.411-.211c-.259-.039-.716.524-.585,1.066-.537-.199-.788-.139-1.175.348-.05-.145-.497-.519-.68-.369l-.486.398c.023-2.087-2.161.438-2.511-.524-.284-.779-1.198-.435-1.559-.602-1.038-.48-1.64-.513-2.582.057-.399,0-.862-.854-.663-1.375-.698.289-1.491.807-1.687,1.303l-.812,1.845c-.209.475-1.496.591-1.133,1.872-.448.098-.702.095-1.126-.278l.273-2.31c0-2.701,1.888-4.398,4.536-4.234l23.387,1.452,11.55.931Z" fill="#e0d6be"/>
          <path d="M139.263,256.469c-1.577.324.121,3.852-1.683,2.319-.267.481-.731,1.208-1.17,1.075-.387-.117-1.264-.333-1.155-1.061.96-.063,1.795-1.121,1.439-1.565l-1.493-1.86c-.404.52-.946.581-1.402.353-.624-.311-.474-1.335-.937-2.754.582.143.694-.103.805-.165.185-.104.036-.563-.06-.484-.195.16-.464.117-.409-.242.305-2.523-.347-3.94-1.078-6.034-.254-.728-1.511-2.306-.467-2.731l5.805-2.076c3.155-1.128,5.344-2.476,5.834-2.539.458-.06,1.564.435,1.467.882-.215.849.057,1.893-.164,2.317-.583.486-.167.995-.239,1.542.019.349-.072.735-.452.689-.199-.024-.727.04-.285-.574-.119.845-.181,1.309-.284,1.412-.153.156-.464.193-1.086.345.368.187.537.404.693.844.241.682-.887,1.424-.416,1.854.097.088.306.178.768.24.027.715-.307,1.017-.525,1.274-.363.43-.845.352-1.433-.055.35,1.075.061,1.318-.266,1.869-.298.503.207.72.213.904.008.246-.549.64-.83.799.648.41.784.466.826.743.052.348.016.764-.149,1.209.022.167.282.356.213.684-.065.307-.177.488-.51.503-.295.013-.458-.021-.957-.509-.135.519-.192.705-.615.792Z" fill="#e0d6be"/>
          <path d="M170.391,232.616c-.098.114-.343.579-.595.662-.251.083-.424.196-1.131.078-.056.756.397,1.308-.154,2.322.793.304.447,1.197-.251.936-.722-.442-1.251-1.412-1.658-1.957.262-.395.002-.545-.065-.715-.162-.411-.432-.652-1.242-.48-.174.037.214-.517.094-.554l-.979-.308c-.328-.103-.689-.386-.965-.462l-.14,1.348c-.036.344-.884.879-1.117.561-.329-.449-.666-.917-1.2-1.1-.346-.119-.804.42-.843,1.09-.558.451-1.022-.176-.497-.757-.52-.135-.896.474-1.537,1.066-.258-.806.144-1.265-.153-1.449-.167-.99-.831-.835-1.357-.961.84-.068.936-.357.997-.732.045-.276.624.18.713.458.639-.281,1.161-.378,2.237-.192-.077-.629-.233-1.379-1.152-1.697.169-.566-.47-1.08-.683-.208-.723-.308-.746-.877-.379-1.325.181-.221.419-.116,1.038-.06l2.907.26,2.999.397,3.899.271,7.105,1.112c.296.046.587.177.768.456.12.185.132.302-.155.571-.238.223-.489-.064-.689-.183-.861.223-.469.834-.304,1.238.325.795,1.051.74,1.674.092.669,1.143,2.222,1.162,1.804,1.627-.409.456-.477.865-.559,1.099-.255.727-.824-.015-1.07.155-.513.351-1.285,1.023-1.608.795l-1.44-1.017c-.057-.35-.567-1.347.358-1.746l-2.187-.349-1.44-1.167c-.078.326-.13.427-.262.613-.128.18-.26.407-.782.21Z" fill="#e0d6be"/>
          <path d="M132.833,269.522c.334-.048.782-.396,1.182.134.245.325.992.606.112,1.219l.554.468c.369.312.069.742-.217.937.463.139.723.39.715.615-.026.769-2.026.977-3.039.646l-1.075-.351c-2.376-.776-3.94-2.379-3.488-4.913l.895-5.01c.303.694.219.828.991,1.088-.501.269-.168,1.44.383.74.386.601.999.345,1.231-.203.198-.235.657-.505.827-.408.165.095.01.825.998.795-.716.748-.111,1.736-1.161,2.455l1.091,1.784Z" fill="#e0d6be"/>
          <path d="M152.318,231.834c-.816-1.289-2.072-.158-3.559-.62.779.096.792-.55.286-.665-.351.533-.707.278-.746.366l-.322.722c-.871.617-1.048-.247-1.395-.391-.604-.249-.176-2.18-1.257-4.803,1.397-.674,2.591-.108,3.17,1.075.706-.058,1.214-.11,1.02-.985,3.753.376,6.46.867,4.643,1.948l.832.516c.735.456-2.391.434-2.672,2.836Z" fill="#e0d6be"/>
          <path d="M168.813,258.702c-.093.281-1.174.49-1.456.137-.626-.783.31-1.979,1.297-2.003.377.245.397,1.046.159,1.865Z" fill="#e0d6be"/>
          <path d="M191.268,215.747c-.445.632-1.125,1.062-1.655,1.393.797-.112,1.037.446.508.76-.645-.204-.998-.195-1.424-.017-.368.154-.707-.404-.692-.77.019-.432.443-.869.54-1.162.04-.185-.474-.634-.67-.61-.791.098-.769-.813-1.127-1.019-1.095-.631-1.347-3.493-.462-4.853-.689.16-.776-.167-.981-.449-.114-.157-.086-.306.115-.741.231-.447.174-1.216-.327-1.091-.611.153-1.017-1.029-.427-1.466-.11.845.444.955.768.728-.579-.524-.275-1.012-.177-1.184.089-.158.311-.462.672-.112.154.15.192.649.644.625.32-.017.484.04,1.034-.336-.288,1.121.059,1.715.854,2.091-.559.396-.557.716-.474.914.087.209.247.413.414.587.262.274.807-.203.712-.522-.104-.348-.228-.476-.074-.88.172-.451.409-.884.732-.672.453.297.568.623.891,1.087.287-.776.715-1.446.886-1.244l1.449.756c.021.316.626.674.704.941.064.219-.621.496-.484.679.668.898-.29,2.482.833,3.455-.418.559-.353,1.278-.328,1.769l-1.756.498c-.121.034-.387-.39-.477-.333-.172.11-.425.354-.5.509-.105.214.203.588.281.67Z" fill="#e0d6be"/>
          <path d="M190.652,231.759c-1.095-.39-2.479.198-3.362-.369-.104-.238-1.029.018-1.306-.165-.583-3.63-5.016-3.912-1.246-5.492.408-.171.826.369,1.4,1.018-.126.579.077,1.24.522,1.447,1.111.516,2.12-.715,2.609-2.372-.811-1.777,1.218-.374,3.665-.767-.146,1.397.702.798,2.698.901l.683.035c.096.005.336,3.732-2.248,4.313.07.452.348.521.454.617.301.273.132.621-.26.797-.344.155-.543-.143-.713-.211-.712.71-1.974.577-2.895.249Z" fill="#e0d6be"/>
          <path d="M167.923,224.828l-1.572-1.078c-.53-.364.085-2.918.393-2.972.187-.033.554-.012.6.108l.213.551c.18.466.728.054.945.106.776.186.125,1.984.98,1.883.254-.03.473.04.896-.459.38.285.794.508.976.315.639-.677.409-2.483.545-2.539.399-.165,1.118-.079,1.541-.064l.836.03c.194.007.173,2.115.551,1.219.132-.313.325-.061.343.042.183,1.084-1.737.459-2.318,1.96-.1.259-.846.082-.989.257s-.228.546-.202,1.131c-1.197.008-2.063.163-2.208.007-.131-.14-.2-.387-.318-.835-.224.167-.197.677-.378.678-.218.002-.51-.117-.836-.34Z" fill="#e0d6be"/>
          <path d="M198.839,200.016c-.207,1.399-3.468,1.416-3.932,1.029-.506-.422-.928-1.308-.552-2.168.916-2.096,4.606.316,4.609.3l-.124.839Z" fill="#e0d6be"/>
          <path d="M187.439,190.904c.465.164.448.442.655.85.184.361.151,1.026-.553,1.031l-2.391.02c.135-.682.294-.86.475-1.14.321-.497-.078-1.222-.532-1.58,2.245.461,3.652-.469,2.346.819Z" fill="#e0d6be"/>
          <path d="M170.918,192.269c.266.173.792-.17.829.045.083.481-.196.885-.371,1.05-.339.32-.623-.319-.802-.459-.516-.084-1.115.078-1.473-.437-.195-.28-.174-.728.381-1.36l-.165-.591.893-.243c.206-.056.393-.289.612-.223.181.055,1.321,1.888.095,2.216Z" fill="#e0d6be"/>
          <path d="M200.738,245.607c-1.308-.745-2.29,1.644-3.547.549-.389-.339-1.142.085-1.838-.218.497-.543.496-.968.281-1.294-.038.647-.503.652-.686.192-.313.422-.616.54-1.176.608-.508.062-.575-.208-1.128-.494l-.377-.849c-.433-.651-.434-2.059.037-2.592.964-1.068,2.318-1.042,3.251-.165.166.156.336-.103.434-.151s.301.13.373.283c.09.193-.15.476-.381.445.623.312.849.103,1.258-.029l-1.002,1.96c.738-.291,1.029.323,1.123.239l.787-.701c.149-.133.769-.066.946-.264.401-.448-.697-1.562-.257-1.876.129-.092.456-.23.405-.6-.273-.383-.391-.037-.553-.008-.172.031-.564-.8-.408-1.012,2.119-2.89,3.323-5.966,3.786-9.733.458.225.921.517,1.359.912l1.21,1.089c.527.474-.306,1.353-.26,1.849.068.723-.493.723-.616.946-.143.258-.073.835.378,1.318-.359-.176-.898.236-.533.67.179-.009-.435.225-.523.36-.124.19.151.572.355.901l-.337.53c-.043.068.206.277.318.347.138.086.38-.009.618-.219.127,1.247.188,2.164.565,2.017.176-.069.288-.494.373-.653.109-.201-.43-.431-.473-.888,1.667.322,2.727.508,3.984,1.029-.447.616.421.845.677.236.299.805-.241.761-.275.887-.061.226.157.613.425.784l-1.278.436c-.411.14.065.932.489,1.109-.536.486-.405,1.276-.233,1.977-1.549-.802-3.863-.62-4.5.605-.581,1.117-1.49.94-2.451.544.773-.448.698-.867.527-1.16-.208-.359-.783-.456-1.13.084Z" fill="#e0d6be"/>
          <path d="M237.065,215.382c-1.122.627-.704,1.887-1.486,2.221-.319.136-1.147.035-1.261-.294l-.175-.504c-.035-.1-.347-.102-.899-.064.072.2.173.771.103,1.036-.057.219-.608.194-.847.218-.468.049-.544-.471-.465-.958-.658-.05-.805-.233-.87-.913-.085.364-.764.511-1.049.442-1.281-.313-.306-2.557-.632-4.569-1.004.052-1.737.206-2.565.053-.221-.041-.15-1.217.062-1.183.243.04.401.229.806-.305l2.113-1.064c1.215-.152,2.02-.347,2.335-1.467-.567.378-.713-.224-.758-.449-.031-.155-.322.039-.852-.214l.848-1.568c2.242.617,4.143.709,5.841,1.523l2.439.443,1.427.466c-1.334-.072-2.288.364-2.19,1.474.054.604-.407,1.125-1.187.961l.374-.449c.104-.125-.423-.631-.269-.744.167-.123.312-.359.144-.559-.094-.111-.332-.331-.405-.236-.114.148-.239.528-.577.696-.391.194.015,1.362.443,1.531-.765.614-1.176.964-2.344,1.398.049.035.536.451.537.648s-.349.559-.241.757c.362.663.987,1.468,1.6,1.673Z" fill="#e0d6be"/>
          <path d="M238.185,230.266c-.087.505-.332.978-.581,1.122-.275.16-.806-.157-.984-.22-.389.264-1.074.349-1.494.128-.285-.15-.406-.426-.105-1.133-.798.005-1.225.222-1.79-.091-1.043-.579-.618,1.068-1.152,3.012-.204.085-.57.283-.655.381-.094.109-.477-.008-.487-.176-.018-.288.168-.563.488-.937-.684-.337-1.098.057-1.896.126l.036-8.328c.001-.277.367-.695.559-.764.056-.02,2.392.474,2.008.131.662.591-.442,1.842-.129,2.196.369.418,1.098.006,1.342.178l.892.628c.11.077.606-.491.732-.691.477-.753.888-.651,1.407-.321.302.192.81.726.544,1.007-.74.072-.128.938.361.295l.255,1.581c.065.407.829.844.651,1.875Z" fill="#e0d6be"/>
          <path d="M230.952,252.5c-.094-1.151,1.084-2.779-.225-3.645,1.322-1.568.89-3.373,1.777-2.281.142.175.001.36-.13.717.743-.387,1.557-.761,2.01-1.356.108-.276.286-.627.527-.61.21.015.441.249.53.383.169.252.205.695-.368,1.034.586.369,1.197,1.498.149,2.29.333.717.131,1.626-.581,2.299.346,1.149-1.446,2.286-1.926,2.295-.492.009-1.674-.034-1.763-1.127Z" fill="#e0d6be"/>
          <path d="M222.748,209.427c-.216-.613-.054-.849-.244-1.124-.109.598-.322.754-.725.751-.119-.565-.427-.654-.642-.722-.342-.108-.586.209-.787.296-.827.361-1.262-.227-1.329-.773-.046-.378-.023-1.073.41-1.118.952-.098,1.373-.119,2.604.052-1.032-1.18-.589-2.907.503-3.061.831-.117,1.764.225,1.656.689l-.465,2.005c.481-.023,1.904.076,1.937.768.012.252-1.628,1.005-2.917,2.236Z" fill="#e0d6be"/>
          <path d="M212.884,250.062c-.198-.55-.636-.378-.778-.272-.132.099-.082-.517.068-.683l.379-.42c.131-.145-.093-.517-.179-.61.345-.116.66-.318.824-.502.157-.176-.191-.679-.297-.969.477-1.295.226-2.62.436-3.718.663-.442,1.379.063,1.841.366.433.284.777.786.44,1.631-.166.956,1.296,3.091.338,3.835-.296.229-2.15-.229-3.071,1.341Z" fill="#e0d6be"/>
          <path d="M223.985,250.66c.34.345-.017,1.466-.419,1.887-.126.132-.499.193-.516-.213-.007-.177.067-.313-.26-.589-.321.236-.484.552-.661.596s-.496-.506-.975.046c-.711.179-.966-.992.16-.8-.56-.857-.492-1.398-.049-2.292l.082-1.262c2.991-.755,6.136.151,5.243,1.48-.316.47-1.004.426-1.387.314-.236.136-.234,1.168-1.218.832Z" fill="#e0d6be"/>
          <path d="M239.027,213.944c-.143.657-.435.449-.571.456-.27.014-.519-.596.003-.919-.532-.195-.627-.499-.366-.884.012-.079-.358-.081-.453-.162-.178-.151.026-.459.195-.546.342-.178.616.199.532.468l1.447.202c-.496.914.459.583.375.762l-.354.762c-.101.218-.786.011-.808-.139Z" fill="#e0d6be"/>
          <path d="M207.412,216.741c-.738-.452-1.022-.541-1.724-.486-.086-.222-.067-.283.007-.353.144-.137.089-.317-.119-.455-.259-.173-.358-.2-.64-.217-.186-.011-.098-.446.158-.539.173-.063.456-.074.637.443.522-.402.699-.385,1.634-.415.206.508.285,1.065.046,2.022Z" fill="#e0d6be"/>
        </g>
      </g>
      <polygon points="178.565 209.81 171.605 208.952 176.559 198.289 178.565 209.81" fill="#f3e8c6"/>
      <path d="M219.761,235.716c-2.472.637-4.824-.231-7.716-.999l1.629-7.214c3.979.8,8.332,1.922,8.218,5.442-.036,1.113-.804,2.429-2.131,2.771Z" fill="#f3e8c6"/>
      <path d="M219.217,223.168l-4.263-1.256,1.696-6.138c2.2.528,4.081.996,5.755,2.129,1.219.825,1.18,2.674.706,3.719-.694,1.531-2.228,2.038-3.895,1.546Z" fill="#f3e8c6"/>
    </g>
    <g>
      <path d="M66.25,162.418c-.598.747-1.308,1.382-2.167,1.905-.859.561-1.867.972-2.951,1.271s-2.316.448-3.661.448c-.485,0-.971-.038-1.457-.075-.485-.037-1.008-.112-1.494-.224-.112-.038-.187-.038-.299-.038-.112.038-.224.038-.336.075l-.149.075c-.112.038-.187.038-.299.075-.112,0-.224,0-.336-.037-1.009-.262-2.018-.635-2.951-1.083s-1.83-1.008-2.689-1.644c-.299-.261-.448-.523-.485-.859-.038-.336.074-.635.336-.934l2.129-2.578c.262-.336.635-.522,1.046-.522.262,0,.561.112.896.299.859.635,1.793,1.12,2.802,1.457.971.374,1.905.56,2.839.56,1.232,0,2.167-.224,2.764-.672.56-.411.859-1.009.859-1.756,0-.784-.336-1.382-1.046-1.793-.709-.411-1.681-.859-2.876-1.345l-3.549-1.494c-.934-.336-1.793-.822-2.577-1.457-.822-.598-1.494-1.345-2.017-2.278-.187-.262-.112-.448.187-.561.261-.074.336-.261.224-.56-.187-.448-.336-.934-.448-1.457-.112-.523-.187-1.083-.187-1.681,0-1.158.262-2.279.747-3.287s1.195-1.905,2.092-2.689c.896-.747,1.979-1.345,3.212-1.793,1.233-.411,2.578-.635,4.034-.635,1.532,0,3.1.262,4.632.822,1.532.56,2.876,1.382,4.072,2.502.224.224.224.448.037.709l-.075.112c-.149.149-.336.299-.523.411l-.187.037c-.187.112-.336.224-.523.411l-1.755,2.204c-.299.374-.635.56-1.046.56-.224,0-.486-.074-.785-.261-.112-.075-.261-.149-.373-.261-.149-.075-.299-.149-.448-.187-.262-.149-.225-.299.037-.411.262-.112.224-.262-.037-.374-.486-.187-.972-.336-1.457-.448-.485-.074-1.009-.112-1.569-.112-1.046,0-1.868.187-2.428.598-.56.411-.859.971-.859,1.681,0,.261.075.56.187.859.112.261.074.448-.149.56-.112.038-.187.112-.225.225-.037.112,0,.187.112.299.336.261.822.522,1.419.784s1.27.523,2.017.784l3.474,1.382c1.719.709,3.063,1.644,4.034,2.839.972,1.233,1.457,2.801,1.457,4.781,0,.672-.112,1.382-.299,2.092-.037.224.037.261.224.149.187-.075.261,0,.187.187-.299.859-.747,1.644-1.345,2.353Z" fill="#fff"/>
      <path d="M84.473,166.042c-.934,0-1.83-.075-2.689-.299-.859-.187-1.718-.411-2.503-.747-1.12-.448-2.166-1.083-3.1-1.868-.934-.784-1.755-1.718-2.428-2.839-.709-1.083-1.232-2.353-1.606-3.81-.411-1.42-.598-2.988-.598-4.744,0-.336,0-.672-.038-1.009-.037-.299,0-.635.038-.971.224-1.98.709-3.773,1.494-5.342.785-1.531,1.755-2.839,2.951-3.922,1.158-1.083,2.503-1.868,3.997-2.428,1.457-.56,3.025-.822,4.669-.822,1.719,0,3.25.336,4.595.971,1.345.672,2.503,1.457,3.437,2.316.037.037.112.075.187.037.038-.037.112-.037.149.038l.075.038c.112.112.112.224.037.299l-2.503,3.062c-.261.336-.635.523-1.046.523-.261,0-.56-.112-.896-.299-.635-.411-1.232-.747-1.83-.972-.635-.187-1.308-.299-2.092-.299-1.158,0-2.167.262-2.951.785-.821.523-1.494,1.195-1.979,2.017-.523.822-.896,1.718-1.121,2.727-.224,1.009-.336,2.018-.336,3.026,0,2.801.598,4.931,1.756,6.462,1.158,1.531,2.727,2.278,4.707,2.278.859,0,1.681-.149,2.391-.448s1.382-.71,1.98-1.195c.299-.224.598-.336.859-.336.336,0,.635.149.896.448l1.868,2.353c.187.261.299.56.299.859s-.112.561-.374.822c-2.279,2.204-5.042,3.287-8.292,3.287Z" fill="#fff"/>
      <path d="M117.638,165.518c-.225.374-.673.561-1.382.561h-4.371c-.56,0-.934-.224-1.195-.71l-.859-1.644c-.112-.261-.149-.56-.075-.821.037-.262.224-.448.485-.598l.225-.075c.598-.336.747-.784.411-1.419l-2.465-4.707c-.262-.485-.635-.709-1.195-.709h-1.046c-.411,0-.747.112-.971.336-.261.261-.374.598-.374,1.008v7.396c0,.374-.187.635-.561.822l-.336.112c-.037.038-.112.075-.224.075-.112.037-.187.037-.261.037h-3.96c-.411,0-.747-.112-.971-.374-.262-.224-.374-.56-.374-.971v-14.53c0-.262-.112-.374-.336-.262s-.336.037-.336-.224v-9.824c0-.411.112-.747.373-1.009.225-.224.561-.336.972-.336h8.853c1.83,0,3.511.224,5.08.635,1.531.448,2.802,1.232,3.81,2.316.149.149.336.187.56.112.262-.112.448-.037.561.149.485.635.859,1.42,1.121,2.279s.411,1.868.411,2.988c0,1.718-.299,3.175-.934,4.408s-1.531,2.204-2.615,2.914c-.336.261-.56.523-.672.859-.112.336-.037.71.149,1.121l1.644,2.913c.149.262.187.523.149.785-.075.261-.262.486-.523.635l-.224.074c-.262.149-.448.336-.485.598-.075.262-.038.561.112.822l1.606,2.839c.336.598.411,1.083.225,1.419ZM105.199,149.756c.224.261.56.373.971.373h1.644c1.606,0,2.802-.336,3.661-1.008.822-.672,1.233-1.681,1.233-2.988,0-1.233-.374-2.092-1.158-2.652-.187-.112-.374-.149-.635-.038-.187.075-.411.075-.673,0-.747-.336-1.793-.486-3.1-.486h-1.644c-.411,0-.747.112-.971.336-.262.261-.374.598-.374,1.008v1.606c0,.187.075.262.261.262l.149-.075c.187,0,.262.075.262.262v2.428c0,.411.112.747.374.972Z" fill="#fff"/>
      <path d="M127.196,165.892c-.262.187-.523.261-.859.261h-3.922c-.561,0-.972-.149-1.195-.486-.225-.336-.262-.747-.112-1.232l7.807-25.176c.112-.261.262-.486.523-.672.224-.187.485-.262.747-.262h6.051c.262,0,.523.075.785.262.224.187.374.411.486.672l7.807,25.176c.149.485.112.896-.112,1.232-.224.336-.635.486-1.195.486h-4.146c-.336,0-.598-.075-.822-.261-.262-.225-.411-.448-.485-.747l-1.083-4.371c-.075-.299-.224-.56-.448-.747-.261-.187-.523-.261-.859-.261h-6.126c-.336,0-.598.074-.822.261-.261.187-.411.448-.485.747l-1.083,4.371c-.075.299-.225.522-.448.747ZM130.67,154.275c.187.224.448.336.822.336h3.25c.336,0,.598-.112.785-.336s.224-.523.112-.859l-.299-1.158c-.187-.709-.373-1.419-.56-2.167s-.411-1.531-.598-2.316c-.336-1.307-.709-1.98-1.083-1.98-.411,0-.784.673-1.12,2.018-.187.784-.374,1.531-.561,2.278s-.374,1.457-.561,2.167l-.299,1.158c-.112.336-.074.635.112.859Z" fill="#fff"/>
      <path d="M167.271,162.679c-.672.785-1.457,1.42-2.391,1.905s-2.017.859-3.175,1.083c-1.158.262-2.391.374-3.698.374h-4.408c-.448,0-.448-.075-.038-.262.411-.187.374-.262-.074-.262h-3.437c-.411,0-.747-.112-.972-.373-.261-.225-.373-.561-.373-.972v-14.605c0-.224-.112-.299-.299-.224-.187.112-.299.075-.299-.187v-9.861c0-.411.112-.747.373-1.009.225-.224.561-.336.972-.336h8.367c1.979,0,3.81.224,5.453.672,1.606.448,2.876,1.233,3.735,2.391.149.187.299.225.486.112.187-.075.336-.037.448.149.56.934.822,2.055.822,3.324,0,.71-.112,1.382-.299,2.092-.224.71-.523,1.345-.896,1.942-.262.411-.448.747-.561,1.046-.112.299-.149.598-.112.859s.187.561.374.822.485.598.859.934c.598.56,1.083,1.27,1.419,2.092.336.821.523,1.793.523,2.913,0,.336-.038.673-.075,1.009-.074.374-.299.635-.635.784-.187.075-.374.187-.485.336-.112.187-.225.374-.262.56-.262,1.046-.71,1.942-1.345,2.689ZM155.729,148.411c.224.224.522.336.896.336h1.531c1.419,0,2.465-.299,3.138-.859.635-.56.971-1.345.971-2.278,0-.672-.149-1.195-.448-1.606-.112-.187-.299-.261-.523-.149-.187.112-.374.075-.561-.074-.635-.486-1.718-.71-3.175-.71h-1.419c-.411,0-.747.112-.971.336-.262.262-.374.598-.374,1.009v1.83c0,.262.112.299.299.187.187-.075.299,0,.299.224v.859c0,.373.112.672.336.896ZM155.766,160.028c.224.261.561.374.971.374h1.98c3.25,0,4.855-1.195,4.855-3.549,0-1.158-.411-1.979-1.195-2.465-.784-.486-2.017-.747-3.66-.747h-1.98c-.411,0-.747.112-.971.336-.262.262-.374.598-.374,1.009v4.071c0,.411.112.747.374.971Z" fill="#fff"/>
      <path d="M193.227,162.679c-.672.785-1.457,1.42-2.391,1.905s-2.017.859-3.175,1.083c-1.158.262-2.391.374-3.698.374h-4.408c-.448,0-.448-.075-.037-.262.411-.187.373-.262-.075-.262h-3.437c-.411,0-.747-.112-.971-.373-.262-.225-.374-.561-.374-.972v-14.605c0-.224-.112-.299-.299-.224-.187.112-.299.075-.299-.187v-9.861c0-.411.112-.747.374-1.009.224-.224.56-.336.971-.336h8.367c1.98,0,3.811.224,5.454.672,1.606.448,2.876,1.233,3.735,2.391.149.187.299.225.485.112.187-.075.336-.037.448.149.561.934.822,2.055.822,3.324,0,.71-.112,1.382-.299,2.092-.224.71-.523,1.345-.896,1.942-.261.411-.448.747-.56,1.046-.112.299-.149.598-.112.859s.187.561.374.822.486.598.859.934c.598.56,1.083,1.27,1.42,2.092.336.821.522,1.793.522,2.913,0,.336-.037.673-.074,1.009-.075.374-.299.635-.635.784-.187.075-.374.187-.486.336-.112.187-.224.374-.261.56-.261,1.046-.709,1.942-1.345,2.689ZM181.684,148.411c.225.224.523.336.896.336h1.532c1.419,0,2.465-.299,3.138-.859.635-.56.971-1.345.971-2.278,0-.672-.149-1.195-.448-1.606-.112-.187-.299-.261-.523-.149-.187.112-.374.075-.56-.074-.635-.486-1.719-.71-3.175-.71h-1.419c-.411,0-.747.112-.971.336-.261.262-.374.598-.374,1.009v1.83c0,.262.112.299.299.187.187-.075.299,0,.299.224v.859c0,.373.112.672.336.896ZM181.722,160.028c.224.261.56.374.971.374h1.979c3.25,0,4.856-1.195,4.856-3.549,0-1.158-.411-1.979-1.195-2.465-.785-.486-2.018-.747-3.661-.747h-1.979c-.411,0-.747.112-.971.336-.261.262-.374.598-.374,1.009v4.071c0,.411.112.747.374.971Z" fill="#fff"/>
      <path d="M216.343,165.817c-.262.225-.598.336-1.009.336h-9.898c-.262,0-.374-.038-.411-.075-.037-.075.075-.149.262-.224l.149-.075c.187-.075.299-.149.262-.224-.038-.038-.149-.075-.411-.075h-3.138c-.411,0-.747-.112-.971-.374-.261-.224-.374-.56-.374-.971v-14.568c0-.299.149-.523.411-.635.261-.074.411-.261.411-.598v-9.712c0-.411.112-.747.374-1.008.224-.224.561-.336.971-.336h3.997c.411,0,.747.112,1.009.336.224.261.336.598.336,1.008v6.911c0,.261-.112.486-.373.598l-.075.075c-.261.112-.373.336-.373.598v11.729c0,.411.112.747.373.971.225.262.561.374.972.374h9.264c.149,0,.224.075.224.224,0,.187-.074.299-.224.374l-.598.261c-.561.187-.822.598-.822,1.233v2.839c0,.411-.112.747-.336,1.008Z" fill="#fff"/>
      <path d="M239.274,165.817c-.262.225-.598.336-1.009.336h-10.72c-.299,0-.336-.075-.149-.187l.224-.074c.187-.112.149-.187-.149-.187h-3.586c-.411,0-.747-.112-.971-.374-.261-.224-.374-.561-.374-.971v-14.418c0-.374.149-.635.485-.784l.149-.075c.336-.187.486-.448.486-.784v-9.562c0-.411.112-.747.374-1.009.224-.224.561-.336.971-.336h14.941c.411,0,.747.112,1.008.336.225.262.336.598.336,1.009v2.055c0,.187-.038.336-.149.485-.112.187-.224.299-.411.336-.374.187-.561.448-.561.859v.187c0,.523-.262.785-.784.785h-2.466c-.187,0-.261-.038-.261-.075-.038-.037.038-.112.224-.187.187-.038.262-.112.262-.149-.038-.038-.112-.075-.299-.075h-5.155c-.411,0-.747.112-.971.336-.262.261-.374.598-.374,1.008v1.195c0,.187-.037.336-.149.486-.112.187-.224.299-.411.336-.374.187-.56.448-.56.859v.411c0,.299.112.523.299.71.187.187.411.299.709.299h6.948c.411,0,.747.112,1.009.336.224.262.336.598.336,1.009v2.914c0,.411-.112.747-.336.971-.262.262-.598.374-1.009.374h-6.611c-.411,0-.747.112-.972.336-.261.261-.373.598-.373,1.008v3.212c0,.411.112.747.373.971.225.261.561.374.972.374h9.898c.075,0,.112.037.112.112,0,.112-.038.187-.112.187l-.374.149c-.336.149-.486.411-.486.747v3.511c0,.411-.112.747-.336,1.008Z" fill="#fff"/>
    </g>
  </g>
</svg>